<mxfile host="app.diagrams.net" modified="2022-07-23T15:45:04.948Z" agent="5.0 (Windows NT 10.0; Win64; x64) AppleWebKit/537.36 (KHTML, like Gecko) Chrome/103.0.0.0 Safari/537.36" etag="Jbngl_Qt9PsXbP5AZDLC" version="17.4.2" type="github">
  <diagram id="bkXCnToB1hzUG0QeASGC" name="Page-1">
    <mxGraphModel dx="2500" dy="934" grid="0" gridSize="10" guides="1" tooltips="1" connect="1" arrows="1" fold="1" page="1" pageScale="1" pageWidth="827" pageHeight="1169" math="0" shadow="0">
      <root>
        <mxCell id="0" />
        <mxCell id="1" parent="0" />
        <mxCell id="s12ok9e1yesrwG63ic8c-331" style="edgeStyle=orthogonalEdgeStyle;rounded=0;orthogonalLoop=1;jettySize=auto;html=1;startArrow=none;startFill=0;endArrow=none;endFill=0;startSize=5;endSize=5;" parent="1" source="s12ok9e1yesrwG63ic8c-1" target="s12ok9e1yesrwG63ic8c-315" edge="1">
          <mxGeometry relative="1" as="geometry">
            <mxPoint x="-33" y="1413" as="targetPoint" />
            <Array as="points">
              <mxPoint x="-243" y="443" />
              <mxPoint x="-243" y="1068" />
            </Array>
          </mxGeometry>
        </mxCell>
        <mxCell id="s12ok9e1yesrwG63ic8c-332" value="1" style="edgeLabel;html=1;align=center;verticalAlign=middle;resizable=0;points=[];" parent="s12ok9e1yesrwG63ic8c-331" vertex="1" connectable="0">
          <mxGeometry x="-0.9807" relative="1" as="geometry">
            <mxPoint as="offset" />
          </mxGeometry>
        </mxCell>
        <mxCell id="s12ok9e1yesrwG63ic8c-333" value="*" style="edgeLabel;html=1;align=center;verticalAlign=middle;resizable=0;points=[];" parent="s12ok9e1yesrwG63ic8c-331" vertex="1" connectable="0">
          <mxGeometry x="0.9869" y="-2" relative="1" as="geometry">
            <mxPoint as="offset" />
          </mxGeometry>
        </mxCell>
        <mxCell id="s12ok9e1yesrwG63ic8c-1" value="&lt;b&gt;GenericActivity&lt;/b&gt;" style="swimlane;fontStyle=0;align=center;verticalAlign=middle;childLayout=stackLayout;horizontal=1;startSize=29;horizontalStack=0;resizeParent=1;resizeParentMax=0;resizeLast=0;collapsible=0;marginBottom=0;html=1;fontSize=12;labelPosition=center;verticalLabelPosition=middle;container=0;strokeColor=default;swimlaneLine=1;rounded=0;shadow=0;glass=0;sketch=0;perimeterSpacing=0;" parent="1" vertex="1">
          <mxGeometry x="330" y="371" width="173" height="291" as="geometry" />
        </mxCell>
        <mxCell id="s12ok9e1yesrwG63ic8c-2" value="- id: Long" style="text;strokeColor=none;fillColor=none;align=left;verticalAlign=top;spacingLeft=4;spacingRight=4;overflow=hidden;rotatable=0;points=[[0,0.5],[1,0.5]];portConstraint=eastwest;container=0;fontStyle=0" parent="s12ok9e1yesrwG63ic8c-1" vertex="1">
          <mxGeometry y="29" width="173" height="26" as="geometry" />
        </mxCell>
        <mxCell id="s12ok9e1yesrwG63ic8c-3" value="- code : String" style="text;strokeColor=none;fillColor=none;align=left;verticalAlign=top;spacingLeft=4;spacingRight=4;overflow=hidden;rotatable=0;points=[[0,0.5],[1,0.5]];portConstraint=eastwest;container=0;fontStyle=0" parent="s12ok9e1yesrwG63ic8c-1" vertex="1">
          <mxGeometry y="55" width="173" height="26" as="geometry" />
        </mxCell>
        <mxCell id="s12ok9e1yesrwG63ic8c-4" value="- summary: String" style="text;strokeColor=none;fillColor=none;align=left;verticalAlign=top;spacingLeft=4;spacingRight=4;overflow=hidden;rotatable=0;points=[[0,0.5],[1,0.5]];portConstraint=eastwest;container=0;fontStyle=0" parent="s12ok9e1yesrwG63ic8c-1" vertex="1">
          <mxGeometry y="81" width="173" height="26" as="geometry" />
        </mxCell>
        <mxCell id="s12ok9e1yesrwG63ic8c-5" value="- description: String" style="text;strokeColor=none;fillColor=none;align=left;verticalAlign=top;spacingLeft=4;spacingRight=4;overflow=hidden;rotatable=0;points=[[0,0.5],[1,0.5]];portConstraint=eastwest;container=0;fontStyle=0" parent="s12ok9e1yesrwG63ic8c-1" vertex="1">
          <mxGeometry y="107" width="173" height="26" as="geometry" />
        </mxCell>
        <mxCell id="s12ok9e1yesrwG63ic8c-7" value="- plannedStartDate: LocalDate" style="text;strokeColor=none;fillColor=none;align=left;verticalAlign=top;spacingLeft=4;spacingRight=4;overflow=hidden;rotatable=0;points=[[0,0.5],[1,0.5]];portConstraint=eastwest;container=0;fontStyle=0" parent="s12ok9e1yesrwG63ic8c-1" vertex="1">
          <mxGeometry y="133" width="173" height="26" as="geometry" />
        </mxCell>
        <mxCell id="s12ok9e1yesrwG63ic8c-6" value="- plannedEndDate : LocalDate" style="text;strokeColor=none;fillColor=none;align=left;verticalAlign=top;spacingLeft=4;spacingRight=4;overflow=hidden;rotatable=0;points=[[0,0.5],[1,0.5]];portConstraint=eastwest;container=0;fontStyle=0" parent="s12ok9e1yesrwG63ic8c-1" vertex="1">
          <mxGeometry y="159" width="173" height="26" as="geometry" />
        </mxCell>
        <mxCell id="s12ok9e1yesrwG63ic8c-9" value="- startDate:&amp;nbsp;&lt;span&gt;LocalDate&lt;/span&gt;" style="text;whiteSpace=wrap;html=1;" parent="s12ok9e1yesrwG63ic8c-1" vertex="1">
          <mxGeometry y="185" width="173" height="28" as="geometry" />
        </mxCell>
        <mxCell id="s12ok9e1yesrwG63ic8c-8" value="- endDate : LocalDate" style="text;strokeColor=none;fillColor=none;align=left;verticalAlign=top;spacingLeft=4;spacingRight=4;overflow=hidden;rotatable=0;points=[[0,0.5],[1,0.5]];portConstraint=eastwest;container=0;fontStyle=0" parent="s12ok9e1yesrwG63ic8c-1" vertex="1">
          <mxGeometry y="213" width="173" height="26" as="geometry" />
        </mxCell>
        <mxCell id="s12ok9e1yesrwG63ic8c-11" value="- budget: Double" style="text;strokeColor=none;fillColor=none;align=left;verticalAlign=top;spacingLeft=4;spacingRight=4;overflow=hidden;rotatable=0;points=[[0,0.5],[1,0.5]];portConstraint=eastwest;container=0;fontStyle=0" parent="s12ok9e1yesrwG63ic8c-1" vertex="1">
          <mxGeometry y="239" width="173" height="26" as="geometry" />
        </mxCell>
        <mxCell id="s12ok9e1yesrwG63ic8c-12" value="- averageCost: Double" style="text;strokeColor=none;fillColor=none;align=left;verticalAlign=top;spacingLeft=4;spacingRight=4;overflow=hidden;rotatable=0;points=[[0,0.5],[1,0.5]];portConstraint=eastwest;container=0;fontStyle=0" parent="s12ok9e1yesrwG63ic8c-1" vertex="1">
          <mxGeometry y="265" width="173" height="26" as="geometry" />
        </mxCell>
        <mxCell id="s12ok9e1yesrwG63ic8c-23" value="&lt;b&gt;&amp;lt;&amp;lt;enum&amp;gt;&amp;gt;&lt;/b&gt;&lt;br&gt;&lt;div style=&quot;text-align: left&quot;&gt;&lt;b&gt;DeliveryStatus&lt;/b&gt;&lt;br&gt;&lt;/div&gt;" style="swimlane;fontStyle=0;align=center;verticalAlign=middle;childLayout=stackLayout;horizontal=1;startSize=29;horizontalStack=0;resizeParent=1;resizeParentMax=0;resizeLast=0;collapsible=0;marginBottom=0;html=1;fontSize=12;labelPosition=center;verticalLabelPosition=middle;container=0;swimlaneLine=1;rounded=0;sketch=0;glass=0;" parent="1" vertex="1">
          <mxGeometry x="580" y="398" width="150" height="159" as="geometry" />
        </mxCell>
        <mxCell id="s12ok9e1yesrwG63ic8c-24" value="PLANNED" style="text;strokeColor=none;fillColor=none;align=left;verticalAlign=top;spacingLeft=4;spacingRight=4;overflow=hidden;rotatable=0;points=[[0,0.5],[1,0.5]];portConstraint=eastwest;container=0;fontStyle=0" parent="s12ok9e1yesrwG63ic8c-23" vertex="1">
          <mxGeometry y="29" width="150" height="26" as="geometry" />
        </mxCell>
        <mxCell id="s12ok9e1yesrwG63ic8c-25" value="IN_PROGRESS" style="text;strokeColor=none;fillColor=none;align=left;verticalAlign=top;spacingLeft=4;spacingRight=4;overflow=hidden;rotatable=0;points=[[0,0.5],[1,0.5]];portConstraint=eastwest;container=0;fontStyle=0" parent="s12ok9e1yesrwG63ic8c-23" vertex="1">
          <mxGeometry y="55" width="150" height="26" as="geometry" />
        </mxCell>
        <mxCell id="s12ok9e1yesrwG63ic8c-26" value="DELIVERED" style="text;strokeColor=none;fillColor=none;align=left;verticalAlign=top;spacingLeft=4;spacingRight=4;overflow=hidden;rotatable=0;points=[[0,0.5],[1,0.5]];portConstraint=eastwest;container=0;fontStyle=0" parent="s12ok9e1yesrwG63ic8c-23" vertex="1">
          <mxGeometry y="81" width="150" height="26" as="geometry" />
        </mxCell>
        <mxCell id="s12ok9e1yesrwG63ic8c-27" value="BLOCKED" style="text;strokeColor=none;fillColor=none;align=left;verticalAlign=top;spacingLeft=4;spacingRight=4;overflow=hidden;rotatable=0;points=[[0,0.5],[1,0.5]];portConstraint=eastwest;container=0;fontStyle=0" parent="s12ok9e1yesrwG63ic8c-23" vertex="1">
          <mxGeometry y="107" width="150" height="26" as="geometry" />
        </mxCell>
        <mxCell id="s12ok9e1yesrwG63ic8c-28" value="CANCELLED" style="text;strokeColor=none;fillColor=none;align=left;verticalAlign=top;spacingLeft=4;spacingRight=4;overflow=hidden;rotatable=0;points=[[0,0.5],[1,0.5]];portConstraint=eastwest;container=0;fontStyle=0" parent="s12ok9e1yesrwG63ic8c-23" vertex="1">
          <mxGeometry y="133" width="150" height="26" as="geometry" />
        </mxCell>
        <mxCell id="s12ok9e1yesrwG63ic8c-29" style="edgeStyle=orthogonalEdgeStyle;rounded=0;orthogonalLoop=1;jettySize=auto;html=1;endSize=5;startSize=5;dashed=1;" parent="1" source="s12ok9e1yesrwG63ic8c-1" target="s12ok9e1yesrwG63ic8c-23" edge="1">
          <mxGeometry relative="1" as="geometry">
            <Array as="points">
              <mxPoint x="545" y="458" />
              <mxPoint x="545" y="458" />
            </Array>
          </mxGeometry>
        </mxCell>
        <mxCell id="s12ok9e1yesrwG63ic8c-30" value="&lt;b&gt;&amp;lt;&amp;lt;enum&amp;gt;&amp;gt;&lt;/b&gt;&lt;br&gt;&lt;div style=&quot;text-align: left&quot;&gt;&lt;b&gt;PhaseType&lt;/b&gt;&lt;br&gt;&lt;/div&gt;" style="swimlane;fontStyle=0;align=center;verticalAlign=middle;childLayout=stackLayout;horizontal=1;startSize=29;horizontalStack=0;resizeParent=1;resizeParentMax=0;resizeLast=0;collapsible=0;marginBottom=0;html=1;fontSize=12;labelPosition=center;verticalLabelPosition=middle;container=0;swimlaneLine=1;rounded=0;sketch=0;glass=0;" parent="1" vertex="1">
          <mxGeometry x="116" y="1479" width="150" height="133" as="geometry" />
        </mxCell>
        <mxCell id="s12ok9e1yesrwG63ic8c-31" value="SCOPING" style="text;strokeColor=none;fillColor=none;align=left;verticalAlign=top;spacingLeft=4;spacingRight=4;overflow=hidden;rotatable=0;points=[[0,0.5],[1,0.5]];portConstraint=eastwest;container=0;fontStyle=0" parent="s12ok9e1yesrwG63ic8c-30" vertex="1">
          <mxGeometry y="29" width="150" height="26" as="geometry" />
        </mxCell>
        <mxCell id="s12ok9e1yesrwG63ic8c-32" value="DEVELOPMENT" style="text;strokeColor=none;fillColor=none;align=left;verticalAlign=top;spacingLeft=4;spacingRight=4;overflow=hidden;rotatable=0;points=[[0,0.5],[1,0.5]];portConstraint=eastwest;container=0;fontStyle=0" parent="s12ok9e1yesrwG63ic8c-30" vertex="1">
          <mxGeometry y="55" width="150" height="26" as="geometry" />
        </mxCell>
        <mxCell id="s12ok9e1yesrwG63ic8c-33" value="DEPLOY" style="text;strokeColor=none;fillColor=none;align=left;verticalAlign=top;spacingLeft=4;spacingRight=4;overflow=hidden;rotatable=0;points=[[0,0.5],[1,0.5]];portConstraint=eastwest;container=0;fontStyle=0" parent="s12ok9e1yesrwG63ic8c-30" vertex="1">
          <mxGeometry y="81" width="150" height="26" as="geometry" />
        </mxCell>
        <mxCell id="s12ok9e1yesrwG63ic8c-34" value="WARRANTY" style="text;strokeColor=none;fillColor=none;align=left;verticalAlign=top;spacingLeft=4;spacingRight=4;overflow=hidden;rotatable=0;points=[[0,0.5],[1,0.5]];portConstraint=eastwest;container=0;fontStyle=0" parent="s12ok9e1yesrwG63ic8c-30" vertex="1">
          <mxGeometry y="107" width="150" height="26" as="geometry" />
        </mxCell>
        <mxCell id="s12ok9e1yesrwG63ic8c-79" style="edgeStyle=orthogonalEdgeStyle;rounded=0;orthogonalLoop=1;jettySize=auto;html=1;startSize=5;endSize=5;endArrow=block;endFill=0;" parent="1" edge="1">
          <mxGeometry relative="1" as="geometry">
            <Array as="points">
              <mxPoint x="216" y="707" />
              <mxPoint x="413" y="707" />
            </Array>
            <mxPoint x="216.0072992700732" y="766" as="sourcePoint" />
            <mxPoint x="413.0000000000002" y="661.9999999999999" as="targetPoint" />
          </mxGeometry>
        </mxCell>
        <mxCell id="s12ok9e1yesrwG63ic8c-37" value="&lt;b&gt;OtherActivity&lt;/b&gt;" style="swimlane;fontStyle=0;align=center;verticalAlign=middle;childLayout=stackLayout;horizontal=1;startSize=29;horizontalStack=0;resizeParent=1;resizeParentMax=0;resizeLast=0;collapsible=0;marginBottom=0;html=1;fontSize=12;labelPosition=center;verticalLabelPosition=middle;container=0;swimlaneLine=1;rounded=0;sketch=0;glass=0;" parent="1" vertex="1">
          <mxGeometry x="149" y="753" width="150" height="81" as="geometry" />
        </mxCell>
        <mxCell id="s12ok9e1yesrwG63ic8c-38" value="- requestor: UUID" style="text;strokeColor=none;fillColor=none;align=left;verticalAlign=top;spacingLeft=4;spacingRight=4;overflow=hidden;rotatable=0;points=[[0,0.5],[1,0.5]];portConstraint=eastwest;container=0;fontStyle=0" parent="s12ok9e1yesrwG63ic8c-37" vertex="1">
          <mxGeometry y="29" width="150" height="26" as="geometry" />
        </mxCell>
        <mxCell id="s12ok9e1yesrwG63ic8c-39" value="- boardTask: UUID" style="text;strokeColor=none;fillColor=none;align=left;verticalAlign=top;spacingLeft=4;spacingRight=4;overflow=hidden;rotatable=0;points=[[0,0.5],[1,0.5]];portConstraint=eastwest;container=0;fontStyle=0" parent="s12ok9e1yesrwG63ic8c-37" vertex="1">
          <mxGeometry y="55" width="150" height="26" as="geometry" />
        </mxCell>
        <mxCell id="s12ok9e1yesrwG63ic8c-81" style="edgeStyle=orthogonalEdgeStyle;rounded=0;orthogonalLoop=1;jettySize=auto;html=1;endArrow=block;endFill=0;startSize=5;endSize=5;" parent="1" source="s12ok9e1yesrwG63ic8c-43" target="s12ok9e1yesrwG63ic8c-1" edge="1">
          <mxGeometry relative="1" as="geometry">
            <Array as="points">
              <mxPoint x="603" y="707" />
              <mxPoint x="413" y="707" />
            </Array>
          </mxGeometry>
        </mxCell>
        <mxCell id="s12ok9e1yesrwG63ic8c-43" value="&lt;span style=&quot;text-align: left&quot;&gt;PresalesActivity&lt;/span&gt;" style="swimlane;fontStyle=1;align=center;verticalAlign=middle;childLayout=stackLayout;horizontal=1;startSize=29;horizontalStack=0;resizeParent=1;resizeParentMax=0;resizeLast=0;collapsible=0;marginBottom=0;html=1;fontSize=12;labelPosition=center;verticalLabelPosition=middle;container=0;swimlaneLine=1;rounded=0;sketch=0;glass=0;" parent="1" vertex="1">
          <mxGeometry x="524" y="753" width="150" height="133" as="geometry" />
        </mxCell>
        <mxCell id="s12ok9e1yesrwG63ic8c-44" value="- crmDealId: UUID" style="text;strokeColor=none;fillColor=none;align=left;verticalAlign=top;spacingLeft=4;spacingRight=4;overflow=hidden;rotatable=0;points=[[0,0.5],[1,0.5]];portConstraint=eastwest;container=0;fontStyle=0" parent="s12ok9e1yesrwG63ic8c-43" vertex="1">
          <mxGeometry y="29" width="150" height="26" as="geometry" />
        </mxCell>
        <mxCell id="s12ok9e1yesrwG63ic8c-45" value="- clientId: UUID" style="text;strokeColor=none;fillColor=none;align=left;verticalAlign=top;spacingLeft=4;spacingRight=4;overflow=hidden;rotatable=0;points=[[0,0.5],[1,0.5]];portConstraint=eastwest;container=0;fontStyle=0" parent="s12ok9e1yesrwG63ic8c-43" vertex="1">
          <mxGeometry y="55" width="150" height="26" as="geometry" />
        </mxCell>
        <mxCell id="s12ok9e1yesrwG63ic8c-48" value="- requestor: UUID" style="text;strokeColor=none;fillColor=none;align=left;verticalAlign=top;spacingLeft=4;spacingRight=4;overflow=hidden;rotatable=0;points=[[0,0.5],[1,0.5]];portConstraint=eastwest;container=0;fontStyle=0" parent="s12ok9e1yesrwG63ic8c-43" vertex="1">
          <mxGeometry y="81" width="150" height="26" as="geometry" />
        </mxCell>
        <mxCell id="s12ok9e1yesrwG63ic8c-49" value="- salesInCharge: UUID" style="text;strokeColor=none;fillColor=none;align=left;verticalAlign=top;spacingLeft=4;spacingRight=4;overflow=hidden;rotatable=0;points=[[0,0.5],[1,0.5]];portConstraint=eastwest;container=0;fontStyle=0" parent="s12ok9e1yesrwG63ic8c-43" vertex="1">
          <mxGeometry y="107" width="150" height="26" as="geometry" />
        </mxCell>
        <mxCell id="s12ok9e1yesrwG63ic8c-80" style="edgeStyle=orthogonalEdgeStyle;rounded=0;orthogonalLoop=1;jettySize=auto;html=1;endArrow=block;endFill=0;startSize=5;endSize=5;" parent="1" edge="1">
          <mxGeometry relative="1" as="geometry">
            <Array as="points">
              <mxPoint x="413" y="694" />
              <mxPoint x="413" y="694" />
            </Array>
            <mxPoint x="413" y="766" as="sourcePoint" />
            <mxPoint x="413" y="661.9999999999999" as="targetPoint" />
          </mxGeometry>
        </mxCell>
        <mxCell id="s12ok9e1yesrwG63ic8c-50" value="DeliveryActivity" style="swimlane;fontStyle=1;align=center;verticalAlign=middle;childLayout=stackLayout;horizontal=1;startSize=29;horizontalStack=0;resizeParent=1;resizeParentMax=0;resizeLast=0;collapsible=0;marginBottom=0;html=1;fontSize=12;labelPosition=center;verticalLabelPosition=middle;container=0;swimlaneLine=1;rounded=0;sketch=0;glass=0;" parent="1" vertex="1">
          <mxGeometry x="327" y="753" width="158" height="159" as="geometry" />
        </mxCell>
        <mxCell id="s12ok9e1yesrwG63ic8c-51" value="- internalOrder: UUID" style="text;strokeColor=none;fillColor=none;align=left;verticalAlign=top;spacingLeft=4;spacingRight=4;overflow=hidden;rotatable=0;points=[[0,0.5],[1,0.5]];portConstraint=eastwest;container=0;fontStyle=0" parent="s12ok9e1yesrwG63ic8c-50" vertex="1">
          <mxGeometry y="29" width="158" height="26" as="geometry" />
        </mxCell>
        <mxCell id="s12ok9e1yesrwG63ic8c-52" value="- clientOrder: UUID" style="text;strokeColor=none;fillColor=none;align=left;verticalAlign=top;spacingLeft=4;spacingRight=4;overflow=hidden;rotatable=0;points=[[0,0.5],[1,0.5]];portConstraint=eastwest;container=0;fontStyle=0" parent="s12ok9e1yesrwG63ic8c-50" vertex="1">
          <mxGeometry y="55" width="158" height="26" as="geometry" />
        </mxCell>
        <mxCell id="s12ok9e1yesrwG63ic8c-53" value="- lead: UUID" style="text;strokeColor=none;fillColor=none;align=left;verticalAlign=top;spacingLeft=4;spacingRight=4;overflow=hidden;rotatable=0;points=[[0,0.5],[1,0.5]];portConstraint=eastwest;container=0;fontStyle=0" parent="s12ok9e1yesrwG63ic8c-50" vertex="1">
          <mxGeometry y="81" width="158" height="26" as="geometry" />
        </mxCell>
        <mxCell id="s12ok9e1yesrwG63ic8c-54" value="- averageBudget: Float" style="text;strokeColor=none;fillColor=none;align=left;verticalAlign=top;spacingLeft=4;spacingRight=4;overflow=hidden;rotatable=0;points=[[0,0.5],[1,0.5]];portConstraint=eastwest;container=0;fontStyle=0" parent="s12ok9e1yesrwG63ic8c-50" vertex="1">
          <mxGeometry y="107" width="158" height="26" as="geometry" />
        </mxCell>
        <mxCell id="s12ok9e1yesrwG63ic8c-56" value="- averageProfitMargin: Float" style="text;strokeColor=none;fillColor=none;align=left;verticalAlign=top;spacingLeft=4;spacingRight=4;overflow=hidden;rotatable=0;points=[[0,0.5],[1,0.5]];portConstraint=eastwest;container=0;fontStyle=0" parent="s12ok9e1yesrwG63ic8c-50" vertex="1">
          <mxGeometry y="133" width="158" height="26" as="geometry" />
        </mxCell>
        <mxCell id="s12ok9e1yesrwG63ic8c-84" style="edgeStyle=orthogonalEdgeStyle;rounded=0;orthogonalLoop=1;jettySize=auto;html=1;endArrow=block;endFill=0;startSize=5;endSize=5;" parent="1" source="s12ok9e1yesrwG63ic8c-57" target="s12ok9e1yesrwG63ic8c-50" edge="1">
          <mxGeometry relative="1" as="geometry">
            <Array as="points">
              <mxPoint x="259" y="971" />
              <mxPoint x="406" y="971" />
            </Array>
          </mxGeometry>
        </mxCell>
        <mxCell id="s12ok9e1yesrwG63ic8c-115" value="" style="edgeStyle=orthogonalEdgeStyle;rounded=0;orthogonalLoop=1;jettySize=auto;html=1;endArrow=none;endFill=0;startSize=5;endSize=5;" parent="1" source="s12ok9e1yesrwG63ic8c-62" target="s12ok9e1yesrwG63ic8c-86" edge="1">
          <mxGeometry relative="1" as="geometry">
            <mxPoint x="-25" y="1125" as="targetPoint" />
            <Array as="points">
              <mxPoint x="126" y="1352" />
            </Array>
          </mxGeometry>
        </mxCell>
        <mxCell id="s12ok9e1yesrwG63ic8c-116" value="1" style="edgeLabel;html=1;align=center;verticalAlign=middle;resizable=0;points=[];" parent="s12ok9e1yesrwG63ic8c-115" vertex="1" connectable="0">
          <mxGeometry x="-0.9444" y="-1" relative="1" as="geometry">
            <mxPoint as="offset" />
          </mxGeometry>
        </mxCell>
        <mxCell id="s12ok9e1yesrwG63ic8c-117" value="*" style="edgeLabel;html=1;align=center;verticalAlign=middle;resizable=0;points=[];" parent="s12ok9e1yesrwG63ic8c-115" vertex="1" connectable="0">
          <mxGeometry x="0.9306" relative="1" as="geometry">
            <mxPoint x="6" y="1" as="offset" />
          </mxGeometry>
        </mxCell>
        <mxCell id="s12ok9e1yesrwG63ic8c-57" value="FixedPriceActivity" style="swimlane;fontStyle=1;align=center;verticalAlign=middle;childLayout=stackLayout;horizontal=1;startSize=29;horizontalStack=0;resizeParent=1;resizeParentMax=0;resizeLast=0;collapsible=0;marginBottom=0;html=1;fontSize=12;labelPosition=center;verticalLabelPosition=middle;container=0;swimlaneLine=1;rounded=0;sketch=0;glass=0;" parent="1" vertex="1">
          <mxGeometry x="184" y="1003" width="150" height="55" as="geometry" />
        </mxCell>
        <mxCell id="s12ok9e1yesrwG63ic8c-85" style="edgeStyle=orthogonalEdgeStyle;rounded=0;orthogonalLoop=1;jettySize=auto;html=1;endArrow=block;endFill=0;startSize=5;endSize=5;" parent="1" source="s12ok9e1yesrwG63ic8c-62" target="s12ok9e1yesrwG63ic8c-50" edge="1">
          <mxGeometry relative="1" as="geometry">
            <Array as="points">
              <mxPoint x="84" y="971" />
              <mxPoint x="406" y="971" />
            </Array>
          </mxGeometry>
        </mxCell>
        <mxCell id="s12ok9e1yesrwG63ic8c-112" style="edgeStyle=orthogonalEdgeStyle;rounded=0;orthogonalLoop=1;jettySize=auto;html=1;endArrow=none;endFill=0;startSize=5;endSize=5;" parent="1" source="s12ok9e1yesrwG63ic8c-57" target="s12ok9e1yesrwG63ic8c-86" edge="1">
          <mxGeometry relative="1" as="geometry">
            <Array as="points">
              <mxPoint x="259" y="1279" />
            </Array>
          </mxGeometry>
        </mxCell>
        <mxCell id="s12ok9e1yesrwG63ic8c-113" value="*" style="edgeLabel;html=1;align=center;verticalAlign=middle;resizable=0;points=[];" parent="s12ok9e1yesrwG63ic8c-112" vertex="1" connectable="0">
          <mxGeometry x="0.9275" y="-2" relative="1" as="geometry">
            <mxPoint x="1" as="offset" />
          </mxGeometry>
        </mxCell>
        <mxCell id="s12ok9e1yesrwG63ic8c-114" value="1" style="edgeLabel;html=1;align=center;verticalAlign=middle;resizable=0;points=[];" parent="s12ok9e1yesrwG63ic8c-112" vertex="1" connectable="0">
          <mxGeometry x="-0.9244" y="1" relative="1" as="geometry">
            <mxPoint x="-2" y="-4" as="offset" />
          </mxGeometry>
        </mxCell>
        <mxCell id="s12ok9e1yesrwG63ic8c-62" value="TimeAndMaterialActivity" style="swimlane;fontStyle=1;align=center;verticalAlign=middle;childLayout=stackLayout;horizontal=1;startSize=29;horizontalStack=0;resizeParent=1;resizeParentMax=0;resizeLast=0;collapsible=0;marginBottom=0;html=1;fontSize=12;labelPosition=center;verticalLabelPosition=middle;container=0;swimlaneLine=1;rounded=0;sketch=0;glass=0;" parent="1" vertex="1">
          <mxGeometry x="9" y="1003" width="150" height="55" as="geometry" />
        </mxCell>
        <mxCell id="s12ok9e1yesrwG63ic8c-83" style="edgeStyle=orthogonalEdgeStyle;rounded=0;orthogonalLoop=1;jettySize=auto;html=1;endArrow=block;endFill=0;startSize=5;endSize=5;" parent="1" source="s12ok9e1yesrwG63ic8c-63" target="s12ok9e1yesrwG63ic8c-50" edge="1">
          <mxGeometry relative="1" as="geometry">
            <Array as="points">
              <mxPoint x="479" y="971" />
              <mxPoint x="406" y="971" />
            </Array>
          </mxGeometry>
        </mxCell>
        <mxCell id="s12ok9e1yesrwG63ic8c-63" value="LicensingActivity" style="swimlane;fontStyle=1;align=center;verticalAlign=middle;childLayout=stackLayout;horizontal=1;startSize=29;horizontalStack=0;resizeParent=1;resizeParentMax=0;resizeLast=0;collapsible=0;marginBottom=0;html=1;fontSize=12;labelPosition=center;verticalLabelPosition=middle;container=0;swimlaneLine=1;rounded=0;sketch=0;glass=0;" parent="1" vertex="1">
          <mxGeometry x="359" y="1000" width="240" height="211" as="geometry" />
        </mxCell>
        <mxCell id="s12ok9e1yesrwG63ic8c-64" value="- product: UUID" style="text;strokeColor=none;fillColor=none;align=left;verticalAlign=top;spacingLeft=4;spacingRight=4;overflow=hidden;rotatable=0;points=[[0,0.5],[1,0.5]];portConstraint=eastwest;container=0;fontStyle=0" parent="s12ok9e1yesrwG63ic8c-63" vertex="1">
          <mxGeometry y="29" width="240" height="26" as="geometry" />
        </mxCell>
        <mxCell id="s12ok9e1yesrwG63ic8c-65" value="- license: UUID" style="text;strokeColor=none;fillColor=none;align=left;verticalAlign=top;spacingLeft=4;spacingRight=4;overflow=hidden;rotatable=0;points=[[0,0.5],[1,0.5]];portConstraint=eastwest;container=0;fontStyle=0" parent="s12ok9e1yesrwG63ic8c-63" vertex="1">
          <mxGeometry y="55" width="240" height="26" as="geometry" />
        </mxCell>
        <mxCell id="s12ok9e1yesrwG63ic8c-66" value="- quantity: Int" style="text;strokeColor=none;fillColor=none;align=left;verticalAlign=top;spacingLeft=4;spacingRight=4;overflow=hidden;rotatable=0;points=[[0,0.5],[1,0.5]];portConstraint=eastwest;container=0;fontStyle=0" parent="s12ok9e1yesrwG63ic8c-63" vertex="1">
          <mxGeometry y="81" width="240" height="26" as="geometry" />
        </mxCell>
        <mxCell id="s12ok9e1yesrwG63ic8c-67" value="- plannedSubscriptionStartDate: LocalDate" style="text;strokeColor=none;fillColor=none;align=left;verticalAlign=top;spacingLeft=4;spacingRight=4;overflow=hidden;rotatable=0;points=[[0,0.5],[1,0.5]];portConstraint=eastwest;container=0;fontStyle=0" parent="s12ok9e1yesrwG63ic8c-63" vertex="1">
          <mxGeometry y="107" width="240" height="26" as="geometry" />
        </mxCell>
        <mxCell id="s12ok9e1yesrwG63ic8c-68" value="- plannedSubscriptionEndDate: LocalDate" style="text;strokeColor=none;fillColor=none;align=left;verticalAlign=top;spacingLeft=4;spacingRight=4;overflow=hidden;rotatable=0;points=[[0,0.5],[1,0.5]];portConstraint=eastwest;container=0;fontStyle=0" parent="s12ok9e1yesrwG63ic8c-63" vertex="1">
          <mxGeometry y="133" width="240" height="26" as="geometry" />
        </mxCell>
        <mxCell id="s12ok9e1yesrwG63ic8c-69" value="- subscriptionStartDate: LocalDate" style="text;strokeColor=none;fillColor=none;align=left;verticalAlign=top;spacingLeft=4;spacingRight=4;overflow=hidden;rotatable=0;points=[[0,0.5],[1,0.5]];portConstraint=eastwest;container=0;fontStyle=0" parent="s12ok9e1yesrwG63ic8c-63" vertex="1">
          <mxGeometry y="159" width="240" height="26" as="geometry" />
        </mxCell>
        <mxCell id="s12ok9e1yesrwG63ic8c-70" value="- subscriptionEndDate: LocalDate" style="text;strokeColor=none;fillColor=none;align=left;verticalAlign=top;spacingLeft=4;spacingRight=4;overflow=hidden;rotatable=0;points=[[0,0.5],[1,0.5]];portConstraint=eastwest;container=0;fontStyle=0" parent="s12ok9e1yesrwG63ic8c-63" vertex="1">
          <mxGeometry y="185" width="240" height="26" as="geometry" />
        </mxCell>
        <mxCell id="s12ok9e1yesrwG63ic8c-82" style="edgeStyle=orthogonalEdgeStyle;rounded=0;orthogonalLoop=1;jettySize=auto;html=1;endArrow=block;endFill=0;startSize=5;endSize=5;" parent="1" source="s12ok9e1yesrwG63ic8c-71" target="s12ok9e1yesrwG63ic8c-50" edge="1">
          <mxGeometry relative="1" as="geometry">
            <Array as="points">
              <mxPoint x="716" y="971" />
              <mxPoint x="406" y="971" />
            </Array>
          </mxGeometry>
        </mxCell>
        <mxCell id="s12ok9e1yesrwG63ic8c-118" style="edgeStyle=orthogonalEdgeStyle;rounded=0;orthogonalLoop=1;jettySize=auto;html=1;endArrow=none;endFill=0;startSize=5;endSize=5;" parent="1" source="s12ok9e1yesrwG63ic8c-71" target="s12ok9e1yesrwG63ic8c-86" edge="1">
          <mxGeometry relative="1" as="geometry">
            <Array as="points">
              <mxPoint x="716" y="1278" />
            </Array>
          </mxGeometry>
        </mxCell>
        <mxCell id="s12ok9e1yesrwG63ic8c-119" value="1" style="edgeLabel;html=1;align=center;verticalAlign=middle;resizable=0;points=[];" parent="s12ok9e1yesrwG63ic8c-118" vertex="1" connectable="0">
          <mxGeometry x="-0.9723" y="2" relative="1" as="geometry">
            <mxPoint x="-4" y="6" as="offset" />
          </mxGeometry>
        </mxCell>
        <mxCell id="s12ok9e1yesrwG63ic8c-120" value="*" style="edgeLabel;html=1;align=center;verticalAlign=middle;resizable=0;points=[];" parent="s12ok9e1yesrwG63ic8c-118" vertex="1" connectable="0">
          <mxGeometry x="0.9861" y="-1" relative="1" as="geometry">
            <mxPoint x="5" y="3" as="offset" />
          </mxGeometry>
        </mxCell>
        <mxCell id="s12ok9e1yesrwG63ic8c-71" value="SupportProgramActivity" style="swimlane;fontStyle=1;align=center;verticalAlign=middle;childLayout=stackLayout;horizontal=1;startSize=29;horizontalStack=0;resizeParent=1;resizeParentMax=0;resizeLast=0;collapsible=0;marginBottom=0;html=1;fontSize=12;labelPosition=center;verticalLabelPosition=middle;container=0;swimlaneLine=1;rounded=0;sketch=0;glass=0;" parent="1" vertex="1">
          <mxGeometry x="629" y="1002" width="173" height="133" as="geometry" />
        </mxCell>
        <mxCell id="s12ok9e1yesrwG63ic8c-72" value="- supportProgram: UUID" style="text;strokeColor=none;fillColor=none;align=left;verticalAlign=top;spacingLeft=4;spacingRight=4;overflow=hidden;rotatable=0;points=[[0,0.5],[1,0.5]];portConstraint=eastwest;container=0;fontStyle=0" parent="s12ok9e1yesrwG63ic8c-71" vertex="1">
          <mxGeometry y="29" width="173" height="26" as="geometry" />
        </mxCell>
        <mxCell id="s12ok9e1yesrwG63ic8c-73" value="- supportProgramName: String" style="text;strokeColor=none;fillColor=none;align=left;verticalAlign=top;spacingLeft=4;spacingRight=4;overflow=hidden;rotatable=0;points=[[0,0.5],[1,0.5]];portConstraint=eastwest;container=0;fontStyle=0" parent="s12ok9e1yesrwG63ic8c-71" vertex="1">
          <mxGeometry y="55" width="173" height="26" as="geometry" />
        </mxCell>
        <mxCell id="s12ok9e1yesrwG63ic8c-76" value="- totalHours: Float" style="text;strokeColor=none;fillColor=none;align=left;verticalAlign=top;spacingLeft=4;spacingRight=4;overflow=hidden;rotatable=0;points=[[0,0.5],[1,0.5]];portConstraint=eastwest;container=0;fontStyle=0" parent="s12ok9e1yesrwG63ic8c-71" vertex="1">
          <mxGeometry y="81" width="173" height="26" as="geometry" />
        </mxCell>
        <mxCell id="s12ok9e1yesrwG63ic8c-77" value="- limit: Float" style="text;strokeColor=none;fillColor=none;align=left;verticalAlign=top;spacingLeft=4;spacingRight=4;overflow=hidden;rotatable=0;points=[[0,0.5],[1,0.5]];portConstraint=eastwest;container=0;fontStyle=0" parent="s12ok9e1yesrwG63ic8c-71" vertex="1">
          <mxGeometry y="107" width="173" height="26" as="geometry" />
        </mxCell>
        <mxCell id="s12ok9e1yesrwG63ic8c-86" value="&lt;b&gt;Iteration&lt;/b&gt;" style="swimlane;fontStyle=0;align=center;verticalAlign=middle;childLayout=stackLayout;horizontal=1;startSize=29;horizontalStack=0;resizeParent=1;resizeParentMax=0;resizeLast=0;collapsible=0;marginBottom=0;html=1;fontSize=12;labelPosition=center;verticalLabelPosition=middle;container=0;strokeColor=default;swimlaneLine=1;rounded=0;shadow=0;glass=0;sketch=0;perimeterSpacing=0;" parent="1" vertex="1">
          <mxGeometry x="317" y="1249" width="173" height="367" as="geometry" />
        </mxCell>
        <mxCell id="s12ok9e1yesrwG63ic8c-87" value="- id: UUID" style="text;strokeColor=none;fillColor=none;align=left;verticalAlign=top;spacingLeft=4;spacingRight=4;overflow=hidden;rotatable=0;points=[[0,0.5],[1,0.5]];portConstraint=eastwest;container=0;fontStyle=0" parent="s12ok9e1yesrwG63ic8c-86" vertex="1">
          <mxGeometry y="29" width="173" height="26" as="geometry" />
        </mxCell>
        <mxCell id="s12ok9e1yesrwG63ic8c-88" value="- code : String" style="text;strokeColor=none;fillColor=none;align=left;verticalAlign=top;spacingLeft=4;spacingRight=4;overflow=hidden;rotatable=0;points=[[0,0.5],[1,0.5]];portConstraint=eastwest;container=0;fontStyle=0" parent="s12ok9e1yesrwG63ic8c-86" vertex="1">
          <mxGeometry y="55" width="173" height="26" as="geometry" />
        </mxCell>
        <mxCell id="s12ok9e1yesrwG63ic8c-89" value="- summary: String" style="text;strokeColor=none;fillColor=none;align=left;verticalAlign=top;spacingLeft=4;spacingRight=4;overflow=hidden;rotatable=0;points=[[0,0.5],[1,0.5]];portConstraint=eastwest;container=0;fontStyle=0" parent="s12ok9e1yesrwG63ic8c-86" vertex="1">
          <mxGeometry y="81" width="173" height="26" as="geometry" />
        </mxCell>
        <mxCell id="s12ok9e1yesrwG63ic8c-107" value="- description: String" style="text;strokeColor=none;fillColor=none;align=left;verticalAlign=top;spacingLeft=4;spacingRight=4;overflow=hidden;rotatable=0;points=[[0,0.5],[1,0.5]];portConstraint=eastwest;container=0;fontStyle=0" parent="s12ok9e1yesrwG63ic8c-86" vertex="1">
          <mxGeometry y="107" width="173" height="26" as="geometry" />
        </mxCell>
        <mxCell id="s12ok9e1yesrwG63ic8c-90" value="- number: Int" style="text;strokeColor=none;fillColor=none;align=left;verticalAlign=top;spacingLeft=4;spacingRight=4;overflow=hidden;rotatable=0;points=[[0,0.5],[1,0.5]];portConstraint=eastwest;container=0;fontStyle=0" parent="s12ok9e1yesrwG63ic8c-86" vertex="1">
          <mxGeometry y="133" width="173" height="26" as="geometry" />
        </mxCell>
        <mxCell id="s12ok9e1yesrwG63ic8c-91" value="- plannedStartDate: LocalDate" style="text;strokeColor=none;fillColor=none;align=left;verticalAlign=top;spacingLeft=4;spacingRight=4;overflow=hidden;rotatable=0;points=[[0,0.5],[1,0.5]];portConstraint=eastwest;container=0;fontStyle=0" parent="s12ok9e1yesrwG63ic8c-86" vertex="1">
          <mxGeometry y="159" width="173" height="26" as="geometry" />
        </mxCell>
        <mxCell id="s12ok9e1yesrwG63ic8c-92" value="- plannedEndDate : LocalDate" style="text;strokeColor=none;fillColor=none;align=left;verticalAlign=top;spacingLeft=4;spacingRight=4;overflow=hidden;rotatable=0;points=[[0,0.5],[1,0.5]];portConstraint=eastwest;container=0;fontStyle=0" parent="s12ok9e1yesrwG63ic8c-86" vertex="1">
          <mxGeometry y="185" width="173" height="26" as="geometry" />
        </mxCell>
        <mxCell id="s12ok9e1yesrwG63ic8c-110" value="- startDate: LocalDate" style="text;strokeColor=none;fillColor=none;align=left;verticalAlign=top;spacingLeft=4;spacingRight=4;overflow=hidden;rotatable=0;points=[[0,0.5],[1,0.5]];portConstraint=eastwest;container=0;fontStyle=0" parent="s12ok9e1yesrwG63ic8c-86" vertex="1">
          <mxGeometry y="211" width="173" height="26" as="geometry" />
        </mxCell>
        <mxCell id="s12ok9e1yesrwG63ic8c-94" value="- deliveryDate: LocalDate" style="text;strokeColor=none;fillColor=none;align=left;verticalAlign=top;spacingLeft=4;spacingRight=4;overflow=hidden;rotatable=0;points=[[0,0.5],[1,0.5]];portConstraint=eastwest;container=0;fontStyle=0" parent="s12ok9e1yesrwG63ic8c-86" vertex="1">
          <mxGeometry y="237" width="173" height="26" as="geometry" />
        </mxCell>
        <mxCell id="s12ok9e1yesrwG63ic8c-95" value="- budget: Double" style="text;strokeColor=none;fillColor=none;align=left;verticalAlign=top;spacingLeft=4;spacingRight=4;overflow=hidden;rotatable=0;points=[[0,0.5],[1,0.5]];portConstraint=eastwest;container=0;fontStyle=0" parent="s12ok9e1yesrwG63ic8c-86" vertex="1">
          <mxGeometry y="263" width="173" height="26" as="geometry" />
        </mxCell>
        <mxCell id="s12ok9e1yesrwG63ic8c-96" value="- averageCost: Double" style="text;strokeColor=none;fillColor=none;align=left;verticalAlign=top;spacingLeft=4;spacingRight=4;overflow=hidden;rotatable=0;points=[[0,0.5],[1,0.5]];portConstraint=eastwest;container=0;fontStyle=0" parent="s12ok9e1yesrwG63ic8c-86" vertex="1">
          <mxGeometry y="289" width="173" height="26" as="geometry" />
        </mxCell>
        <mxCell id="s12ok9e1yesrwG63ic8c-97" value="- averageProfitMargin: Float" style="text;strokeColor=none;fillColor=none;align=left;verticalAlign=top;spacingLeft=4;spacingRight=4;overflow=hidden;rotatable=0;points=[[0,0.5],[1,0.5]];portConstraint=eastwest;container=0;fontStyle=0" parent="s12ok9e1yesrwG63ic8c-86" vertex="1">
          <mxGeometry y="315" width="173" height="26" as="geometry" />
        </mxCell>
        <mxCell id="s12ok9e1yesrwG63ic8c-98" value="- order: Integer" style="text;strokeColor=none;fillColor=none;align=left;verticalAlign=top;spacingLeft=4;spacingRight=4;overflow=hidden;rotatable=0;points=[[0,0.5],[1,0.5]];portConstraint=eastwest;container=0;fontStyle=0" parent="s12ok9e1yesrwG63ic8c-86" vertex="1">
          <mxGeometry y="341" width="173" height="26" as="geometry" />
        </mxCell>
        <mxCell id="s12ok9e1yesrwG63ic8c-143" style="edgeStyle=orthogonalEdgeStyle;rounded=0;orthogonalLoop=1;jettySize=auto;html=1;dashed=1;endArrow=classic;endFill=1;startSize=5;endSize=5;" parent="1" source="s12ok9e1yesrwG63ic8c-122" target="s12ok9e1yesrwG63ic8c-137" edge="1">
          <mxGeometry relative="1" as="geometry">
            <Array as="points">
              <mxPoint x="810" y="1457" />
              <mxPoint x="735" y="1457" />
            </Array>
          </mxGeometry>
        </mxCell>
        <mxCell id="s12ok9e1yesrwG63ic8c-144" style="edgeStyle=orthogonalEdgeStyle;rounded=0;orthogonalLoop=1;jettySize=auto;html=1;endArrow=none;endFill=0;startSize=5;endSize=5;" parent="1" source="s12ok9e1yesrwG63ic8c-122" target="s12ok9e1yesrwG63ic8c-50" edge="1">
          <mxGeometry relative="1" as="geometry">
            <Array as="points">
              <mxPoint x="829" y="938" />
              <mxPoint x="458" y="938" />
            </Array>
            <mxPoint x="893.9999999999995" y="1244" as="sourcePoint" />
            <mxPoint x="459" y="908" as="targetPoint" />
          </mxGeometry>
        </mxCell>
        <mxCell id="s12ok9e1yesrwG63ic8c-145" value="*" style="edgeLabel;html=1;align=center;verticalAlign=middle;resizable=0;points=[];" parent="s12ok9e1yesrwG63ic8c-144" vertex="1" connectable="0">
          <mxGeometry x="-0.9596" y="1" relative="1" as="geometry">
            <mxPoint as="offset" />
          </mxGeometry>
        </mxCell>
        <mxCell id="s12ok9e1yesrwG63ic8c-146" value="1" style="edgeLabel;html=1;align=center;verticalAlign=middle;resizable=0;points=[];" parent="s12ok9e1yesrwG63ic8c-144" vertex="1" connectable="0">
          <mxGeometry x="0.9131" y="-1" relative="1" as="geometry">
            <mxPoint y="-17" as="offset" />
          </mxGeometry>
        </mxCell>
        <mxCell id="s12ok9e1yesrwG63ic8c-306" style="edgeStyle=orthogonalEdgeStyle;rounded=0;orthogonalLoop=1;jettySize=auto;html=1;endArrow=none;endFill=0;startSize=5;endSize=5;" parent="1" source="s12ok9e1yesrwG63ic8c-122" target="s12ok9e1yesrwG63ic8c-298" edge="1">
          <mxGeometry relative="1" as="geometry">
            <Array as="points">
              <mxPoint x="732" y="1365" />
              <mxPoint x="732" y="1365" />
            </Array>
          </mxGeometry>
        </mxCell>
        <mxCell id="s12ok9e1yesrwG63ic8c-307" value="*" style="edgeLabel;html=1;align=center;verticalAlign=middle;resizable=0;points=[];" parent="s12ok9e1yesrwG63ic8c-306" vertex="1" connectable="0">
          <mxGeometry x="-0.7088" relative="1" as="geometry">
            <mxPoint y="2" as="offset" />
          </mxGeometry>
        </mxCell>
        <mxCell id="s12ok9e1yesrwG63ic8c-308" value="1" style="edgeLabel;html=1;align=center;verticalAlign=middle;resizable=0;points=[];" parent="s12ok9e1yesrwG63ic8c-306" vertex="1" connectable="0">
          <mxGeometry x="0.747" y="1" relative="1" as="geometry">
            <mxPoint x="1" y="-1" as="offset" />
          </mxGeometry>
        </mxCell>
        <mxCell id="s12ok9e1yesrwG63ic8c-122" value="Retrospective" style="swimlane;fontStyle=1;align=center;verticalAlign=middle;childLayout=stackLayout;horizontal=1;startSize=29;horizontalStack=0;resizeParent=1;resizeParentMax=0;resizeLast=0;collapsible=0;marginBottom=0;html=1;fontSize=12;labelPosition=center;verticalLabelPosition=middle;container=0;swimlaneLine=1;rounded=0;sketch=0;glass=0;" parent="1" vertex="1">
          <mxGeometry x="747" y="1244" width="173" height="185" as="geometry" />
        </mxCell>
        <mxCell id="s12ok9e1yesrwG63ic8c-123" value="- id: UUID" style="text;strokeColor=none;fillColor=none;align=left;verticalAlign=top;spacingLeft=4;spacingRight=4;overflow=hidden;rotatable=0;points=[[0,0.5],[1,0.5]];portConstraint=eastwest;container=0;fontStyle=0" parent="s12ok9e1yesrwG63ic8c-122" vertex="1">
          <mxGeometry y="29" width="173" height="26" as="geometry" />
        </mxCell>
        <mxCell id="s12ok9e1yesrwG63ic8c-124" value="- reporter: UUID" style="text;strokeColor=none;fillColor=none;align=left;verticalAlign=top;spacingLeft=4;spacingRight=4;overflow=hidden;rotatable=0;points=[[0,0.5],[1,0.5]];portConstraint=eastwest;container=0;fontStyle=0" parent="s12ok9e1yesrwG63ic8c-122" vertex="1">
          <mxGeometry y="55" width="173" height="26" as="geometry" />
        </mxCell>
        <mxCell id="s12ok9e1yesrwG63ic8c-125" value="- date : LocalDate" style="text;strokeColor=none;fillColor=none;align=left;verticalAlign=top;spacingLeft=4;spacingRight=4;overflow=hidden;rotatable=0;points=[[0,0.5],[1,0.5]];portConstraint=eastwest;container=0;fontStyle=0" parent="s12ok9e1yesrwG63ic8c-122" vertex="1">
          <mxGeometry y="81" width="173" height="26" as="geometry" />
        </mxCell>
        <mxCell id="s12ok9e1yesrwG63ic8c-126" value="- subject: String" style="text;strokeColor=none;fillColor=none;align=left;verticalAlign=top;spacingLeft=4;spacingRight=4;overflow=hidden;rotatable=0;points=[[0,0.5],[1,0.5]];portConstraint=eastwest;container=0;fontStyle=0" parent="s12ok9e1yesrwG63ic8c-122" vertex="1">
          <mxGeometry y="107" width="173" height="26" as="geometry" />
        </mxCell>
        <mxCell id="s12ok9e1yesrwG63ic8c-127" value="- proposition: String" style="text;strokeColor=none;fillColor=none;align=left;verticalAlign=top;spacingLeft=4;spacingRight=4;overflow=hidden;rotatable=0;points=[[0,0.5],[1,0.5]];portConstraint=eastwest;container=0;fontStyle=0" parent="s12ok9e1yesrwG63ic8c-122" vertex="1">
          <mxGeometry y="133" width="173" height="26" as="geometry" />
        </mxCell>
        <mxCell id="s12ok9e1yesrwG63ic8c-128" value="- limit: Float" style="text;strokeColor=none;fillColor=none;align=left;verticalAlign=top;spacingLeft=4;spacingRight=4;overflow=hidden;rotatable=0;points=[[0,0.5],[1,0.5]];portConstraint=eastwest;container=0;fontStyle=0" parent="s12ok9e1yesrwG63ic8c-122" vertex="1">
          <mxGeometry y="159" width="173" height="26" as="geometry" />
        </mxCell>
        <mxCell id="s12ok9e1yesrwG63ic8c-129" value="&lt;b&gt;&amp;lt;&amp;lt;enum&amp;gt;&amp;gt;&lt;/b&gt;&lt;br&gt;&lt;div style=&quot;text-align: left&quot;&gt;&lt;b&gt;RetrospectiveType&lt;/b&gt;&lt;br&gt;&lt;/div&gt;" style="swimlane;fontStyle=0;align=center;verticalAlign=middle;childLayout=stackLayout;horizontal=1;startSize=29;horizontalStack=0;resizeParent=1;resizeParentMax=0;resizeLast=0;collapsible=0;marginBottom=0;html=1;fontSize=12;labelPosition=center;verticalLabelPosition=middle;container=0;swimlaneLine=1;rounded=0;sketch=0;glass=0;" parent="1" vertex="1">
          <mxGeometry x="844" y="1510" width="150" height="81" as="geometry" />
        </mxCell>
        <mxCell id="s12ok9e1yesrwG63ic8c-130" value="IMPROVEMENT" style="text;strokeColor=none;fillColor=none;align=left;verticalAlign=top;spacingLeft=4;spacingRight=4;overflow=hidden;rotatable=0;points=[[0,0.5],[1,0.5]];portConstraint=eastwest;container=0;fontStyle=0" parent="s12ok9e1yesrwG63ic8c-129" vertex="1">
          <mxGeometry y="29" width="150" height="26" as="geometry" />
        </mxCell>
        <mxCell id="s12ok9e1yesrwG63ic8c-131" value="CAPITALIZATION" style="text;strokeColor=none;fillColor=none;align=left;verticalAlign=top;spacingLeft=4;spacingRight=4;overflow=hidden;rotatable=0;points=[[0,0.5],[1,0.5]];portConstraint=eastwest;container=0;fontStyle=0" parent="s12ok9e1yesrwG63ic8c-129" vertex="1">
          <mxGeometry y="55" width="150" height="26" as="geometry" />
        </mxCell>
        <mxCell id="s12ok9e1yesrwG63ic8c-135" style="edgeStyle=orthogonalEdgeStyle;rounded=0;orthogonalLoop=1;jettySize=auto;html=1;endArrow=classic;endFill=1;startSize=5;endSize=5;dashed=1;" parent="1" source="s12ok9e1yesrwG63ic8c-122" target="s12ok9e1yesrwG63ic8c-129" edge="1">
          <mxGeometry relative="1" as="geometry">
            <Array as="points">
              <mxPoint x="865" y="1456" />
              <mxPoint x="935" y="1456" />
            </Array>
          </mxGeometry>
        </mxCell>
        <mxCell id="s12ok9e1yesrwG63ic8c-137" value="&lt;b&gt;&amp;lt;&amp;lt;enum&amp;gt;&amp;gt;&lt;/b&gt;&lt;br&gt;&lt;div style=&quot;text-align: left&quot;&gt;&lt;b&gt;RetrospectiveStatus&lt;/b&gt;&lt;br&gt;&lt;/div&gt;" style="swimlane;fontStyle=0;align=center;verticalAlign=middle;childLayout=stackLayout;horizontal=1;startSize=29;horizontalStack=0;resizeParent=1;resizeParentMax=0;resizeLast=0;collapsible=0;marginBottom=0;html=1;fontSize=12;labelPosition=center;verticalLabelPosition=middle;container=0;swimlaneLine=1;rounded=0;sketch=0;glass=0;" parent="1" vertex="1">
          <mxGeometry x="659" y="1510" width="150" height="133" as="geometry" />
        </mxCell>
        <mxCell id="s12ok9e1yesrwG63ic8c-138" value="OPEN" style="text;strokeColor=none;fillColor=none;align=left;verticalAlign=top;spacingLeft=4;spacingRight=4;overflow=hidden;rotatable=0;points=[[0,0.5],[1,0.5]];portConstraint=eastwest;container=0;fontStyle=0" parent="s12ok9e1yesrwG63ic8c-137" vertex="1">
          <mxGeometry y="29" width="150" height="26" as="geometry" />
        </mxCell>
        <mxCell id="s12ok9e1yesrwG63ic8c-139" value="PROCESSING" style="text;strokeColor=none;fillColor=none;align=left;verticalAlign=top;spacingLeft=4;spacingRight=4;overflow=hidden;rotatable=0;points=[[0,0.5],[1,0.5]];portConstraint=eastwest;container=0;fontStyle=0" parent="s12ok9e1yesrwG63ic8c-137" vertex="1">
          <mxGeometry y="55" width="150" height="26" as="geometry" />
        </mxCell>
        <mxCell id="s12ok9e1yesrwG63ic8c-140" value="CLOSED" style="text;strokeColor=none;fillColor=none;align=left;verticalAlign=top;spacingLeft=4;spacingRight=4;overflow=hidden;rotatable=0;points=[[0,0.5],[1,0.5]];portConstraint=eastwest;container=0;fontStyle=0" parent="s12ok9e1yesrwG63ic8c-137" vertex="1">
          <mxGeometry y="81" width="150" height="26" as="geometry" />
        </mxCell>
        <mxCell id="s12ok9e1yesrwG63ic8c-141" value="REJECTED" style="text;strokeColor=none;fillColor=none;align=left;verticalAlign=top;spacingLeft=4;spacingRight=4;overflow=hidden;rotatable=0;points=[[0,0.5],[1,0.5]];portConstraint=eastwest;container=0;fontStyle=0" parent="s12ok9e1yesrwG63ic8c-137" vertex="1">
          <mxGeometry y="107" width="150" height="26" as="geometry" />
        </mxCell>
        <mxCell id="s12ok9e1yesrwG63ic8c-156" style="edgeStyle=orthogonalEdgeStyle;rounded=0;orthogonalLoop=1;jettySize=auto;html=1;endArrow=none;endFill=0;startSize=5;endSize=5;" parent="1" source="s12ok9e1yesrwG63ic8c-147" target="s12ok9e1yesrwG63ic8c-50" edge="1">
          <mxGeometry relative="1" as="geometry">
            <Array as="points">
              <mxPoint x="1044" y="928" />
              <mxPoint x="471" y="928" />
            </Array>
            <mxPoint x="1114.492753623188" y="1234" as="sourcePoint" />
            <mxPoint x="471" y="902" as="targetPoint" />
          </mxGeometry>
        </mxCell>
        <mxCell id="s12ok9e1yesrwG63ic8c-157" value="*" style="edgeLabel;html=1;align=center;verticalAlign=middle;resizable=0;points=[];" parent="s12ok9e1yesrwG63ic8c-156" vertex="1" connectable="0">
          <mxGeometry x="-0.9807" y="1" relative="1" as="geometry">
            <mxPoint as="offset" />
          </mxGeometry>
        </mxCell>
        <mxCell id="s12ok9e1yesrwG63ic8c-158" value="1" style="edgeLabel;html=1;align=center;verticalAlign=middle;resizable=0;points=[];" parent="s12ok9e1yesrwG63ic8c-156" vertex="1" connectable="0">
          <mxGeometry x="0.9786" y="1" relative="1" as="geometry">
            <mxPoint x="6" y="-2" as="offset" />
          </mxGeometry>
        </mxCell>
        <mxCell id="s12ok9e1yesrwG63ic8c-164" style="edgeStyle=orthogonalEdgeStyle;rounded=0;orthogonalLoop=1;jettySize=auto;html=1;endArrow=classic;endFill=1;startSize=5;endSize=5;dashed=1;" parent="1" source="s12ok9e1yesrwG63ic8c-147" target="s12ok9e1yesrwG63ic8c-159" edge="1">
          <mxGeometry relative="1" as="geometry">
            <mxPoint x="1124" y="1559" as="targetPoint" />
            <Array as="points">
              <mxPoint x="1092" y="1520" />
              <mxPoint x="1092" y="1520" />
            </Array>
          </mxGeometry>
        </mxCell>
        <mxCell id="s12ok9e1yesrwG63ic8c-147" value="ResourcePlanning" style="swimlane;fontStyle=1;align=center;verticalAlign=middle;childLayout=stackLayout;horizontal=1;startSize=29;horizontalStack=0;resizeParent=1;resizeParentMax=0;resizeLast=0;collapsible=0;marginBottom=0;html=1;fontSize=12;labelPosition=center;verticalLabelPosition=middle;container=0;swimlaneLine=1;rounded=0;sketch=0;glass=0;" parent="1" vertex="1">
          <mxGeometry x="961" y="1244" width="173" height="211" as="geometry" />
        </mxCell>
        <mxCell id="s12ok9e1yesrwG63ic8c-148" value="- id: UUID" style="text;strokeColor=none;fillColor=none;align=left;verticalAlign=top;spacingLeft=4;spacingRight=4;overflow=hidden;rotatable=0;points=[[0,0.5],[1,0.5]];portConstraint=eastwest;container=0;fontStyle=0" parent="s12ok9e1yesrwG63ic8c-147" vertex="1">
          <mxGeometry y="29" width="173" height="26" as="geometry" />
        </mxCell>
        <mxCell id="s12ok9e1yesrwG63ic8c-149" value="- summary: String" style="text;strokeColor=none;fillColor=none;align=left;verticalAlign=top;spacingLeft=4;spacingRight=4;overflow=hidden;rotatable=0;points=[[0,0.5],[1,0.5]];portConstraint=eastwest;container=0;fontStyle=0" parent="s12ok9e1yesrwG63ic8c-147" vertex="1">
          <mxGeometry y="55" width="173" height="26" as="geometry" />
        </mxCell>
        <mxCell id="s12ok9e1yesrwG63ic8c-150" value="- employee: UUID" style="text;strokeColor=none;fillColor=none;align=left;verticalAlign=top;spacingLeft=4;spacingRight=4;overflow=hidden;rotatable=0;points=[[0,0.5],[1,0.5]];portConstraint=eastwest;container=0;fontStyle=0" parent="s12ok9e1yesrwG63ic8c-147" vertex="1">
          <mxGeometry y="81" width="173" height="26" as="geometry" />
        </mxCell>
        <mxCell id="s12ok9e1yesrwG63ic8c-151" value="- fromDate: LocalDate" style="text;strokeColor=none;fillColor=none;align=left;verticalAlign=top;spacingLeft=4;spacingRight=4;overflow=hidden;rotatable=0;points=[[0,0.5],[1,0.5]];portConstraint=eastwest;container=0;fontStyle=0" parent="s12ok9e1yesrwG63ic8c-147" vertex="1">
          <mxGeometry y="107" width="173" height="26" as="geometry" />
        </mxCell>
        <mxCell id="s12ok9e1yesrwG63ic8c-152" value="- toDate: LocalDate" style="text;strokeColor=none;fillColor=none;align=left;verticalAlign=top;spacingLeft=4;spacingRight=4;overflow=hidden;rotatable=0;points=[[0,0.5],[1,0.5]];portConstraint=eastwest;container=0;fontStyle=0" parent="s12ok9e1yesrwG63ic8c-147" vertex="1">
          <mxGeometry y="133" width="173" height="26" as="geometry" />
        </mxCell>
        <mxCell id="s12ok9e1yesrwG63ic8c-153" value="- regime: Float" style="text;strokeColor=none;fillColor=none;align=left;verticalAlign=top;spacingLeft=4;spacingRight=4;overflow=hidden;rotatable=0;points=[[0,0.5],[1,0.5]];portConstraint=eastwest;container=0;fontStyle=0" parent="s12ok9e1yesrwG63ic8c-147" vertex="1">
          <mxGeometry y="159" width="173" height="26" as="geometry" />
        </mxCell>
        <mxCell id="s12ok9e1yesrwG63ic8c-155" value="- notes: String" style="text;strokeColor=none;fillColor=none;align=left;verticalAlign=top;spacingLeft=4;spacingRight=4;overflow=hidden;rotatable=0;points=[[0,0.5],[1,0.5]];portConstraint=eastwest;container=0;fontStyle=0" parent="s12ok9e1yesrwG63ic8c-147" vertex="1">
          <mxGeometry y="185" width="173" height="26" as="geometry" />
        </mxCell>
        <mxCell id="s12ok9e1yesrwG63ic8c-159" value="&lt;b&gt;&amp;lt;&amp;lt;enum&amp;gt;&amp;gt;&lt;/b&gt;&lt;br&gt;&lt;div style=&quot;text-align: left&quot;&gt;&lt;b&gt;ResourcePlanningType&lt;/b&gt;&lt;br&gt;&lt;/div&gt;" style="swimlane;fontStyle=0;align=center;verticalAlign=middle;childLayout=stackLayout;horizontal=1;startSize=29;horizontalStack=0;resizeParent=1;resizeParentMax=0;resizeLast=0;collapsible=0;marginBottom=0;html=1;fontSize=12;labelPosition=center;verticalLabelPosition=middle;container=0;swimlaneLine=1;rounded=0;sketch=0;glass=0;" parent="1" vertex="1">
          <mxGeometry x="1028" y="1544" width="150" height="159" as="geometry" />
        </mxCell>
        <mxCell id="s12ok9e1yesrwG63ic8c-160" value="DELIVERY" style="text;strokeColor=none;fillColor=none;align=left;verticalAlign=top;spacingLeft=4;spacingRight=4;overflow=hidden;rotatable=0;points=[[0,0.5],[1,0.5]];portConstraint=eastwest;container=0;fontStyle=0" parent="s12ok9e1yesrwG63ic8c-159" vertex="1">
          <mxGeometry y="29" width="150" height="26" as="geometry" />
        </mxCell>
        <mxCell id="s12ok9e1yesrwG63ic8c-161" value="PRESALES" style="text;strokeColor=none;fillColor=none;align=left;verticalAlign=top;spacingLeft=4;spacingRight=4;overflow=hidden;rotatable=0;points=[[0,0.5],[1,0.5]];portConstraint=eastwest;container=0;fontStyle=0" parent="s12ok9e1yesrwG63ic8c-159" vertex="1">
          <mxGeometry y="55" width="150" height="26" as="geometry" />
        </mxCell>
        <mxCell id="s12ok9e1yesrwG63ic8c-162" value="TRAINING" style="text;strokeColor=none;fillColor=none;align=left;verticalAlign=top;spacingLeft=4;spacingRight=4;overflow=hidden;rotatable=0;points=[[0,0.5],[1,0.5]];portConstraint=eastwest;container=0;fontStyle=0" parent="s12ok9e1yesrwG63ic8c-159" vertex="1">
          <mxGeometry y="81" width="150" height="26" as="geometry" />
        </mxCell>
        <mxCell id="s12ok9e1yesrwG63ic8c-163" value="LEAVE" style="text;strokeColor=none;fillColor=none;align=left;verticalAlign=top;spacingLeft=4;spacingRight=4;overflow=hidden;rotatable=0;points=[[0,0.5],[1,0.5]];portConstraint=eastwest;container=0;fontStyle=0" parent="s12ok9e1yesrwG63ic8c-159" vertex="1">
          <mxGeometry y="107" width="150" height="26" as="geometry" />
        </mxCell>
        <mxCell id="s12ok9e1yesrwG63ic8c-166" value="OTHER" style="text;strokeColor=none;fillColor=none;align=left;verticalAlign=top;spacingLeft=4;spacingRight=4;overflow=hidden;rotatable=0;points=[[0,0.5],[1,0.5]];portConstraint=eastwest;container=0;fontStyle=0" parent="s12ok9e1yesrwG63ic8c-159" vertex="1">
          <mxGeometry y="133" width="150" height="26" as="geometry" />
        </mxCell>
        <mxCell id="s12ok9e1yesrwG63ic8c-168" style="edgeStyle=orthogonalEdgeStyle;rounded=0;orthogonalLoop=1;jettySize=auto;html=1;dashed=1;endArrow=classic;endFill=1;startSize=5;endSize=5;" parent="1" source="s12ok9e1yesrwG63ic8c-86" target="s12ok9e1yesrwG63ic8c-30" edge="1">
          <mxGeometry relative="1" as="geometry">
            <Array as="points">
              <mxPoint x="379" y="1540" />
              <mxPoint x="379" y="1540" />
            </Array>
          </mxGeometry>
        </mxCell>
        <mxCell id="s12ok9e1yesrwG63ic8c-169" value="&lt;b&gt;&amp;lt;&amp;lt;enum&amp;gt;&amp;gt;&lt;/b&gt;&lt;br&gt;&lt;div style=&quot;text-align: left&quot;&gt;DealType&lt;br&gt;&lt;/div&gt;" style="swimlane;fontStyle=0;align=center;verticalAlign=middle;childLayout=stackLayout;horizontal=1;startSize=29;horizontalStack=0;resizeParent=1;resizeParentMax=0;resizeLast=0;collapsible=0;marginBottom=0;html=1;fontSize=12;labelPosition=center;verticalLabelPosition=middle;container=0;swimlaneLine=1;rounded=0;sketch=0;glass=0;" parent="1" vertex="1">
          <mxGeometry x="-199" y="753" width="150" height="133" as="geometry" />
        </mxCell>
        <mxCell id="s12ok9e1yesrwG63ic8c-170" value="TIME_AND_MATERIAL" style="text;strokeColor=none;fillColor=none;align=left;verticalAlign=top;spacingLeft=4;spacingRight=4;overflow=hidden;rotatable=0;points=[[0,0.5],[1,0.5]];portConstraint=eastwest;container=0;fontStyle=0" parent="s12ok9e1yesrwG63ic8c-169" vertex="1">
          <mxGeometry y="29" width="150" height="26" as="geometry" />
        </mxCell>
        <mxCell id="s12ok9e1yesrwG63ic8c-171" value="FIXED_PRICE" style="text;strokeColor=none;fillColor=none;align=left;verticalAlign=top;spacingLeft=4;spacingRight=4;overflow=hidden;rotatable=0;points=[[0,0.5],[1,0.5]];portConstraint=eastwest;container=0;fontStyle=0" parent="s12ok9e1yesrwG63ic8c-169" vertex="1">
          <mxGeometry y="55" width="150" height="26" as="geometry" />
        </mxCell>
        <mxCell id="s12ok9e1yesrwG63ic8c-172" value="SUPPORT_PROGRAM" style="text;strokeColor=none;fillColor=none;align=left;verticalAlign=top;spacingLeft=4;spacingRight=4;overflow=hidden;rotatable=0;points=[[0,0.5],[1,0.5]];portConstraint=eastwest;container=0;fontStyle=0" parent="s12ok9e1yesrwG63ic8c-169" vertex="1">
          <mxGeometry y="81" width="150" height="26" as="geometry" />
        </mxCell>
        <mxCell id="s12ok9e1yesrwG63ic8c-173" value="LICENSE" style="text;strokeColor=none;fillColor=none;align=left;verticalAlign=top;spacingLeft=4;spacingRight=4;overflow=hidden;rotatable=0;points=[[0,0.5],[1,0.5]];portConstraint=eastwest;container=0;fontStyle=0" parent="s12ok9e1yesrwG63ic8c-169" vertex="1">
          <mxGeometry y="107" width="150" height="26" as="geometry" />
        </mxCell>
        <mxCell id="s12ok9e1yesrwG63ic8c-174" style="edgeStyle=orthogonalEdgeStyle;rounded=0;orthogonalLoop=1;jettySize=auto;html=1;dashed=1;endArrow=classic;endFill=1;startSize=5;endSize=5;" parent="1" source="s12ok9e1yesrwG63ic8c-50" target="s12ok9e1yesrwG63ic8c-169" edge="1">
          <mxGeometry relative="1" as="geometry">
            <Array as="points">
              <mxPoint x="156" y="898" />
              <mxPoint x="156" y="898" />
            </Array>
          </mxGeometry>
        </mxCell>
        <mxCell id="s12ok9e1yesrwG63ic8c-210" style="edgeStyle=orthogonalEdgeStyle;rounded=0;orthogonalLoop=1;jettySize=auto;html=1;endArrow=none;endFill=0;startSize=5;endSize=5;" parent="1" source="s12ok9e1yesrwG63ic8c-175" target="s12ok9e1yesrwG63ic8c-63" edge="1">
          <mxGeometry relative="1" as="geometry">
            <Array as="points">
              <mxPoint x="536" y="1760" />
            </Array>
          </mxGeometry>
        </mxCell>
        <mxCell id="s12ok9e1yesrwG63ic8c-211" value="*" style="edgeLabel;html=1;align=center;verticalAlign=middle;resizable=0;points=[];" parent="s12ok9e1yesrwG63ic8c-210" vertex="1" connectable="0">
          <mxGeometry x="-0.9505" y="1" relative="1" as="geometry">
            <mxPoint as="offset" />
          </mxGeometry>
        </mxCell>
        <mxCell id="s12ok9e1yesrwG63ic8c-212" value="1" style="edgeLabel;html=1;align=center;verticalAlign=middle;resizable=0;points=[];" parent="s12ok9e1yesrwG63ic8c-210" vertex="1" connectable="0">
          <mxGeometry x="0.9729" relative="1" as="geometry">
            <mxPoint x="-1" as="offset" />
          </mxGeometry>
        </mxCell>
        <mxCell id="s12ok9e1yesrwG63ic8c-325" style="edgeStyle=orthogonalEdgeStyle;rounded=0;orthogonalLoop=1;jettySize=auto;html=1;startArrow=none;startFill=0;endArrow=none;endFill=0;startSize=5;endSize=5;" parent="1" source="s12ok9e1yesrwG63ic8c-175" target="s12ok9e1yesrwG63ic8c-315" edge="1">
          <mxGeometry relative="1" as="geometry">
            <Array as="points">
              <mxPoint x="-139" y="1716" />
            </Array>
          </mxGeometry>
        </mxCell>
        <mxCell id="s12ok9e1yesrwG63ic8c-326" value="1" style="edgeLabel;html=1;align=center;verticalAlign=middle;resizable=0;points=[];" parent="s12ok9e1yesrwG63ic8c-325" vertex="1" connectable="0">
          <mxGeometry x="-0.9708" y="-2" relative="1" as="geometry">
            <mxPoint as="offset" />
          </mxGeometry>
        </mxCell>
        <mxCell id="s12ok9e1yesrwG63ic8c-327" value="1" style="edgeLabel;html=1;align=center;verticalAlign=middle;resizable=0;points=[];" parent="s12ok9e1yesrwG63ic8c-325" vertex="1" connectable="0">
          <mxGeometry x="0.9711" relative="1" as="geometry">
            <mxPoint as="offset" />
          </mxGeometry>
        </mxCell>
        <mxCell id="s12ok9e1yesrwG63ic8c-175" value="&lt;b&gt;Task&lt;br&gt;&lt;/b&gt;" style="swimlane;fontStyle=0;align=center;verticalAlign=middle;childLayout=stackLayout;horizontal=1;startSize=29;horizontalStack=0;resizeParent=1;resizeParentMax=0;resizeLast=0;collapsible=0;marginBottom=0;html=1;fontSize=12;labelPosition=center;verticalLabelPosition=middle;container=0;strokeColor=default;swimlaneLine=1;rounded=0;shadow=0;glass=0;sketch=0;perimeterSpacing=0;" parent="1" vertex="1">
          <mxGeometry x="317" y="1670" width="173" height="341" as="geometry" />
        </mxCell>
        <mxCell id="s12ok9e1yesrwG63ic8c-176" value="- id: UUID" style="text;strokeColor=none;fillColor=none;align=left;verticalAlign=top;spacingLeft=4;spacingRight=4;overflow=hidden;rotatable=0;points=[[0,0.5],[1,0.5]];portConstraint=eastwest;container=0;fontStyle=0" parent="s12ok9e1yesrwG63ic8c-175" vertex="1">
          <mxGeometry y="29" width="173" height="26" as="geometry" />
        </mxCell>
        <mxCell id="s12ok9e1yesrwG63ic8c-177" value="- code : String" style="text;strokeColor=none;fillColor=none;align=left;verticalAlign=top;spacingLeft=4;spacingRight=4;overflow=hidden;rotatable=0;points=[[0,0.5],[1,0.5]];portConstraint=eastwest;container=0;fontStyle=0" parent="s12ok9e1yesrwG63ic8c-175" vertex="1">
          <mxGeometry y="55" width="173" height="26" as="geometry" />
        </mxCell>
        <mxCell id="s12ok9e1yesrwG63ic8c-178" value="- summary: String" style="text;strokeColor=none;fillColor=none;align=left;verticalAlign=top;spacingLeft=4;spacingRight=4;overflow=hidden;rotatable=0;points=[[0,0.5],[1,0.5]];portConstraint=eastwest;container=0;fontStyle=0" parent="s12ok9e1yesrwG63ic8c-175" vertex="1">
          <mxGeometry y="81" width="173" height="26" as="geometry" />
        </mxCell>
        <mxCell id="s12ok9e1yesrwG63ic8c-179" value="- description: String" style="text;strokeColor=none;fillColor=none;align=left;verticalAlign=top;spacingLeft=4;spacingRight=4;overflow=hidden;rotatable=0;points=[[0,0.5],[1,0.5]];portConstraint=eastwest;container=0;fontStyle=0" parent="s12ok9e1yesrwG63ic8c-175" vertex="1">
          <mxGeometry y="107" width="173" height="26" as="geometry" />
        </mxCell>
        <mxCell id="s12ok9e1yesrwG63ic8c-180" value="- toDate: LocalDate" style="text;strokeColor=none;fillColor=none;align=left;verticalAlign=top;spacingLeft=4;spacingRight=4;overflow=hidden;rotatable=0;points=[[0,0.5],[1,0.5]];portConstraint=eastwest;container=0;fontStyle=0" parent="s12ok9e1yesrwG63ic8c-175" vertex="1">
          <mxGeometry y="133" width="173" height="26" as="geometry" />
        </mxCell>
        <mxCell id="s12ok9e1yesrwG63ic8c-181" value="- regime: Float" style="text;strokeColor=none;fillColor=none;align=left;verticalAlign=top;spacingLeft=4;spacingRight=4;overflow=hidden;rotatable=0;points=[[0,0.5],[1,0.5]];portConstraint=eastwest;container=0;fontStyle=0" parent="s12ok9e1yesrwG63ic8c-175" vertex="1">
          <mxGeometry y="159" width="173" height="26" as="geometry" />
        </mxCell>
        <mxCell id="s12ok9e1yesrwG63ic8c-182" value="- dueDate: LocalDate" style="text;strokeColor=none;fillColor=none;align=left;verticalAlign=top;spacingLeft=4;spacingRight=4;overflow=hidden;rotatable=0;points=[[0,0.5],[1,0.5]];portConstraint=eastwest;container=0;fontStyle=0" parent="s12ok9e1yesrwG63ic8c-175" vertex="1">
          <mxGeometry y="185" width="173" height="26" as="geometry" />
        </mxCell>
        <mxCell id="s12ok9e1yesrwG63ic8c-183" value="- deliveryDate: LocalDate" style="text;strokeColor=none;fillColor=none;align=left;verticalAlign=top;spacingLeft=4;spacingRight=4;overflow=hidden;rotatable=0;points=[[0,0.5],[1,0.5]];portConstraint=eastwest;container=0;fontStyle=0" parent="s12ok9e1yesrwG63ic8c-175" vertex="1">
          <mxGeometry y="211" width="173" height="26" as="geometry" />
        </mxCell>
        <mxCell id="s12ok9e1yesrwG63ic8c-184" value="- assignee: UUID" style="text;strokeColor=none;fillColor=none;align=left;verticalAlign=top;spacingLeft=4;spacingRight=4;overflow=hidden;rotatable=0;points=[[0,0.5],[1,0.5]];portConstraint=eastwest;container=0;fontStyle=0" parent="s12ok9e1yesrwG63ic8c-175" vertex="1">
          <mxGeometry y="237" width="173" height="26" as="geometry" />
        </mxCell>
        <mxCell id="s12ok9e1yesrwG63ic8c-187" value="- estimation: Float" style="text;strokeColor=none;fillColor=none;align=left;verticalAlign=top;spacingLeft=4;spacingRight=4;overflow=hidden;rotatable=0;points=[[0,0.5],[1,0.5]];portConstraint=eastwest;container=0;fontStyle=0" parent="s12ok9e1yesrwG63ic8c-175" vertex="1">
          <mxGeometry y="263" width="173" height="26" as="geometry" />
        </mxCell>
        <mxCell id="s12ok9e1yesrwG63ic8c-195" value="- notes: String" style="text;strokeColor=none;fillColor=none;align=left;verticalAlign=top;spacingLeft=4;spacingRight=4;overflow=hidden;rotatable=0;points=[[0,0.5],[1,0.5]];portConstraint=eastwest;container=0;fontStyle=0" parent="s12ok9e1yesrwG63ic8c-175" vertex="1">
          <mxGeometry y="289" width="173" height="26" as="geometry" />
        </mxCell>
        <mxCell id="s12ok9e1yesrwG63ic8c-196" value="- order: Int" style="text;strokeColor=none;fillColor=none;align=left;verticalAlign=top;spacingLeft=4;spacingRight=4;overflow=hidden;rotatable=0;points=[[0,0.5],[1,0.5]];portConstraint=eastwest;container=0;fontStyle=0" parent="s12ok9e1yesrwG63ic8c-175" vertex="1">
          <mxGeometry y="315" width="173" height="26" as="geometry" />
        </mxCell>
        <mxCell id="s12ok9e1yesrwG63ic8c-197" value="&lt;b&gt;&amp;lt;&amp;lt;enum&amp;gt;&amp;gt;&lt;/b&gt;&lt;br&gt;&lt;div style=&quot;text-align: left&quot;&gt;&lt;b&gt;TaskPriority&lt;/b&gt;&lt;br&gt;&lt;/div&gt;" style="swimlane;fontStyle=0;align=center;verticalAlign=middle;childLayout=stackLayout;horizontal=1;startSize=29;horizontalStack=0;resizeParent=1;resizeParentMax=0;resizeLast=0;collapsible=0;marginBottom=0;html=1;fontSize=12;labelPosition=center;verticalLabelPosition=middle;container=0;swimlaneLine=1;rounded=0;sketch=0;glass=0;" parent="1" vertex="1">
          <mxGeometry x="102" y="1775" width="150" height="107" as="geometry" />
        </mxCell>
        <mxCell id="s12ok9e1yesrwG63ic8c-198" value="LOW" style="text;strokeColor=none;fillColor=none;align=left;verticalAlign=top;spacingLeft=4;spacingRight=4;overflow=hidden;rotatable=0;points=[[0,0.5],[1,0.5]];portConstraint=eastwest;container=0;fontStyle=0" parent="s12ok9e1yesrwG63ic8c-197" vertex="1">
          <mxGeometry y="29" width="150" height="26" as="geometry" />
        </mxCell>
        <mxCell id="s12ok9e1yesrwG63ic8c-199" value="MEDIUM" style="text;strokeColor=none;fillColor=none;align=left;verticalAlign=top;spacingLeft=4;spacingRight=4;overflow=hidden;rotatable=0;points=[[0,0.5],[1,0.5]];portConstraint=eastwest;container=0;fontStyle=0" parent="s12ok9e1yesrwG63ic8c-197" vertex="1">
          <mxGeometry y="55" width="150" height="26" as="geometry" />
        </mxCell>
        <mxCell id="s12ok9e1yesrwG63ic8c-200" value="CRITICAL" style="text;strokeColor=none;fillColor=none;align=left;verticalAlign=top;spacingLeft=4;spacingRight=4;overflow=hidden;rotatable=0;points=[[0,0.5],[1,0.5]];portConstraint=eastwest;container=0;fontStyle=0" parent="s12ok9e1yesrwG63ic8c-197" vertex="1">
          <mxGeometry y="81" width="150" height="26" as="geometry" />
        </mxCell>
        <mxCell id="s12ok9e1yesrwG63ic8c-202" value="&lt;b&gt;&amp;lt;&amp;lt;enum&amp;gt;&amp;gt;&lt;/b&gt;&lt;br&gt;&lt;div style=&quot;text-align: left&quot;&gt;&lt;b&gt;DeliveryStatus&lt;/b&gt;&lt;br&gt;&lt;/div&gt;" style="swimlane;fontStyle=0;align=center;verticalAlign=middle;childLayout=stackLayout;horizontal=1;startSize=29;horizontalStack=0;resizeParent=1;resizeParentMax=0;resizeLast=0;collapsible=0;marginBottom=0;html=1;fontSize=12;labelPosition=center;verticalLabelPosition=middle;container=0;swimlaneLine=1;rounded=0;sketch=0;glass=0;" parent="1" vertex="1">
          <mxGeometry x="104" y="1906" width="150" height="159" as="geometry" />
        </mxCell>
        <mxCell id="s12ok9e1yesrwG63ic8c-203" value="PLANNED" style="text;strokeColor=none;fillColor=none;align=left;verticalAlign=top;spacingLeft=4;spacingRight=4;overflow=hidden;rotatable=0;points=[[0,0.5],[1,0.5]];portConstraint=eastwest;container=0;fontStyle=0" parent="s12ok9e1yesrwG63ic8c-202" vertex="1">
          <mxGeometry y="29" width="150" height="26" as="geometry" />
        </mxCell>
        <mxCell id="s12ok9e1yesrwG63ic8c-204" value="IN_PROGRESS" style="text;strokeColor=none;fillColor=none;align=left;verticalAlign=top;spacingLeft=4;spacingRight=4;overflow=hidden;rotatable=0;points=[[0,0.5],[1,0.5]];portConstraint=eastwest;container=0;fontStyle=0" parent="s12ok9e1yesrwG63ic8c-202" vertex="1">
          <mxGeometry y="55" width="150" height="26" as="geometry" />
        </mxCell>
        <mxCell id="s12ok9e1yesrwG63ic8c-205" value="DELIVERED" style="text;strokeColor=none;fillColor=none;align=left;verticalAlign=top;spacingLeft=4;spacingRight=4;overflow=hidden;rotatable=0;points=[[0,0.5],[1,0.5]];portConstraint=eastwest;container=0;fontStyle=0" parent="s12ok9e1yesrwG63ic8c-202" vertex="1">
          <mxGeometry y="81" width="150" height="26" as="geometry" />
        </mxCell>
        <mxCell id="s12ok9e1yesrwG63ic8c-206" value="BLOCKED" style="text;strokeColor=none;fillColor=none;align=left;verticalAlign=top;spacingLeft=4;spacingRight=4;overflow=hidden;rotatable=0;points=[[0,0.5],[1,0.5]];portConstraint=eastwest;container=0;fontStyle=0" parent="s12ok9e1yesrwG63ic8c-202" vertex="1">
          <mxGeometry y="107" width="150" height="26" as="geometry" />
        </mxCell>
        <mxCell id="s12ok9e1yesrwG63ic8c-207" value="CANCELLED" style="text;strokeColor=none;fillColor=none;align=left;verticalAlign=top;spacingLeft=4;spacingRight=4;overflow=hidden;rotatable=0;points=[[0,0.5],[1,0.5]];portConstraint=eastwest;container=0;fontStyle=0" parent="s12ok9e1yesrwG63ic8c-202" vertex="1">
          <mxGeometry y="133" width="150" height="26" as="geometry" />
        </mxCell>
        <mxCell id="s12ok9e1yesrwG63ic8c-208" style="edgeStyle=orthogonalEdgeStyle;rounded=0;orthogonalLoop=1;jettySize=auto;html=1;endArrow=classic;endFill=1;startSize=5;endSize=5;dashed=1;" parent="1" source="s12ok9e1yesrwG63ic8c-175" target="s12ok9e1yesrwG63ic8c-197" edge="1">
          <mxGeometry relative="1" as="geometry">
            <Array as="points">
              <mxPoint x="359" y="1827" />
              <mxPoint x="359" y="1827" />
            </Array>
          </mxGeometry>
        </mxCell>
        <mxCell id="s12ok9e1yesrwG63ic8c-209" style="edgeStyle=orthogonalEdgeStyle;rounded=0;orthogonalLoop=1;jettySize=auto;html=1;endArrow=classic;endFill=1;startSize=5;endSize=5;dashed=1;" parent="1" source="s12ok9e1yesrwG63ic8c-175" target="s12ok9e1yesrwG63ic8c-202" edge="1">
          <mxGeometry relative="1" as="geometry">
            <Array as="points">
              <mxPoint x="392" y="1985" />
              <mxPoint x="392" y="1985" />
            </Array>
          </mxGeometry>
        </mxCell>
        <mxCell id="s12ok9e1yesrwG63ic8c-225" style="edgeStyle=orthogonalEdgeStyle;rounded=0;orthogonalLoop=1;jettySize=auto;html=1;endArrow=none;endFill=0;startSize=5;endSize=5;" parent="1" source="s12ok9e1yesrwG63ic8c-213" target="s12ok9e1yesrwG63ic8c-50" edge="1">
          <mxGeometry relative="1" as="geometry">
            <Array as="points">
              <mxPoint x="1231" y="903" />
            </Array>
          </mxGeometry>
        </mxCell>
        <mxCell id="s12ok9e1yesrwG63ic8c-226" value="1" style="edgeLabel;html=1;align=center;verticalAlign=middle;resizable=0;points=[];" parent="s12ok9e1yesrwG63ic8c-225" vertex="1" connectable="0">
          <mxGeometry x="0.9625" y="1" relative="1" as="geometry">
            <mxPoint x="-7" y="-2" as="offset" />
          </mxGeometry>
        </mxCell>
        <mxCell id="s12ok9e1yesrwG63ic8c-227" value="*" style="edgeLabel;html=1;align=center;verticalAlign=middle;resizable=0;points=[];" parent="s12ok9e1yesrwG63ic8c-225" vertex="1" connectable="0">
          <mxGeometry x="-0.9877" relative="1" as="geometry">
            <mxPoint x="3" y="3" as="offset" />
          </mxGeometry>
        </mxCell>
        <mxCell id="s12ok9e1yesrwG63ic8c-213" value="ReportLog" style="swimlane;fontStyle=1;align=center;verticalAlign=middle;childLayout=stackLayout;horizontal=1;startSize=29;horizontalStack=0;resizeParent=1;resizeParentMax=0;resizeLast=0;collapsible=0;marginBottom=0;html=1;fontSize=12;labelPosition=center;verticalLabelPosition=middle;container=0;swimlaneLine=1;rounded=0;sketch=0;glass=0;" parent="1" vertex="1">
          <mxGeometry x="1136" y="1002" width="190" height="211" as="geometry" />
        </mxCell>
        <mxCell id="s12ok9e1yesrwG63ic8c-214" value="- id: UUID" style="text;strokeColor=none;fillColor=none;align=left;verticalAlign=top;spacingLeft=4;spacingRight=4;overflow=hidden;rotatable=0;points=[[0,0.5],[1,0.5]];portConstraint=eastwest;container=0;fontStyle=0" parent="s12ok9e1yesrwG63ic8c-213" vertex="1">
          <mxGeometry y="29" width="190" height="26" as="geometry" />
        </mxCell>
        <mxCell id="s12ok9e1yesrwG63ic8c-215" value="- date: LocalDate" style="text;strokeColor=none;fillColor=none;align=left;verticalAlign=top;spacingLeft=4;spacingRight=4;overflow=hidden;rotatable=0;points=[[0,0.5],[1,0.5]];portConstraint=eastwest;container=0;fontStyle=0" parent="s12ok9e1yesrwG63ic8c-213" vertex="1">
          <mxGeometry y="55" width="190" height="26" as="geometry" />
        </mxCell>
        <mxCell id="s12ok9e1yesrwG63ic8c-216" value="- emitter: UUID" style="text;strokeColor=none;fillColor=none;align=left;verticalAlign=top;spacingLeft=4;spacingRight=4;overflow=hidden;rotatable=0;points=[[0,0.5],[1,0.5]];portConstraint=eastwest;container=0;fontStyle=0" parent="s12ok9e1yesrwG63ic8c-213" vertex="1">
          <mxGeometry y="81" width="190" height="26" as="geometry" />
        </mxCell>
        <mxCell id="s12ok9e1yesrwG63ic8c-217" value="- subject: String" style="text;strokeColor=none;fillColor=none;align=left;verticalAlign=top;spacingLeft=4;spacingRight=4;overflow=hidden;rotatable=0;points=[[0,0.5],[1,0.5]];portConstraint=eastwest;container=0;fontStyle=0" parent="s12ok9e1yesrwG63ic8c-213" vertex="1">
          <mxGeometry y="107" width="190" height="26" as="geometry" />
        </mxCell>
        <mxCell id="s12ok9e1yesrwG63ic8c-218" value="- report: String" style="text;strokeColor=none;fillColor=none;align=left;verticalAlign=top;spacingLeft=4;spacingRight=4;overflow=hidden;rotatable=0;points=[[0,0.5],[1,0.5]];portConstraint=eastwest;container=0;fontStyle=0" parent="s12ok9e1yesrwG63ic8c-213" vertex="1">
          <mxGeometry y="133" width="190" height="26" as="geometry" />
        </mxCell>
        <mxCell id="s12ok9e1yesrwG63ic8c-219" value="- progress: Float" style="text;strokeColor=none;fillColor=none;align=left;verticalAlign=top;spacingLeft=4;spacingRight=4;overflow=hidden;rotatable=0;points=[[0,0.5],[1,0.5]];portConstraint=eastwest;container=0;fontStyle=0" parent="s12ok9e1yesrwG63ic8c-213" vertex="1">
          <mxGeometry y="159" width="190" height="26" as="geometry" />
        </mxCell>
        <mxCell id="s12ok9e1yesrwG63ic8c-220" value="- plannedDeliveryDate: LocalDate" style="text;strokeColor=none;fillColor=none;align=left;verticalAlign=top;spacingLeft=4;spacingRight=4;overflow=hidden;rotatable=0;points=[[0,0.5],[1,0.5]];portConstraint=eastwest;container=0;fontStyle=0" parent="s12ok9e1yesrwG63ic8c-213" vertex="1">
          <mxGeometry y="185" width="190" height="26" as="geometry" />
        </mxCell>
        <mxCell id="s12ok9e1yesrwG63ic8c-231" style="edgeStyle=orthogonalEdgeStyle;rounded=0;orthogonalLoop=1;jettySize=auto;html=1;endArrow=none;endFill=0;startSize=5;endSize=5;" parent="1" source="s12ok9e1yesrwG63ic8c-228" target="s12ok9e1yesrwG63ic8c-213" edge="1">
          <mxGeometry relative="1" as="geometry">
            <Array as="points">
              <mxPoint x="1258" y="1291" />
              <mxPoint x="1258" y="1291" />
            </Array>
          </mxGeometry>
        </mxCell>
        <mxCell id="s12ok9e1yesrwG63ic8c-233" value="*" style="edgeLabel;html=1;align=center;verticalAlign=middle;resizable=0;points=[];" parent="s12ok9e1yesrwG63ic8c-231" vertex="1" connectable="0">
          <mxGeometry x="-0.8259" relative="1" as="geometry">
            <mxPoint as="offset" />
          </mxGeometry>
        </mxCell>
        <mxCell id="s12ok9e1yesrwG63ic8c-234" value="*" style="edgeLabel;html=1;align=center;verticalAlign=middle;resizable=0;points=[];" parent="s12ok9e1yesrwG63ic8c-231" vertex="1" connectable="0">
          <mxGeometry x="0.8907" y="-1" relative="1" as="geometry">
            <mxPoint x="-2" y="1" as="offset" />
          </mxGeometry>
        </mxCell>
        <mxCell id="s12ok9e1yesrwG63ic8c-228" value="&lt;b&gt;DeliveryStakeholderIds&lt;/b&gt;" style="swimlane;fontStyle=0;align=center;verticalAlign=middle;childLayout=stackLayout;horizontal=1;startSize=29;horizontalStack=0;resizeParent=1;resizeParentMax=0;resizeLast=0;collapsible=0;marginBottom=0;html=1;fontSize=12;labelPosition=center;verticalLabelPosition=middle;container=0;swimlaneLine=1;rounded=0;sketch=0;glass=0;" parent="1" vertex="1">
          <mxGeometry x="1197" y="1309" width="150" height="81" as="geometry" />
        </mxCell>
        <mxCell id="s12ok9e1yesrwG63ic8c-229" value="- id: UUID" style="text;strokeColor=none;fillColor=none;align=left;verticalAlign=top;spacingLeft=4;spacingRight=4;overflow=hidden;rotatable=0;points=[[0,0.5],[1,0.5]];portConstraint=eastwest;container=0;fontStyle=0" parent="s12ok9e1yesrwG63ic8c-228" vertex="1">
          <mxGeometry y="29" width="150" height="26" as="geometry" />
        </mxCell>
        <mxCell id="s12ok9e1yesrwG63ic8c-230" value="- stakeholder: UUID" style="text;strokeColor=none;fillColor=none;align=left;verticalAlign=top;spacingLeft=4;spacingRight=4;overflow=hidden;rotatable=0;points=[[0,0.5],[1,0.5]];portConstraint=eastwest;container=0;fontStyle=0" parent="s12ok9e1yesrwG63ic8c-228" vertex="1">
          <mxGeometry y="55" width="150" height="26" as="geometry" />
        </mxCell>
        <mxCell id="s12ok9e1yesrwG63ic8c-232" style="edgeStyle=orthogonalEdgeStyle;rounded=0;orthogonalLoop=1;jettySize=auto;html=1;endArrow=none;endFill=0;startSize=5;endSize=5;" parent="1" source="s12ok9e1yesrwG63ic8c-50" target="s12ok9e1yesrwG63ic8c-228" edge="1">
          <mxGeometry relative="1" as="geometry">
            <Array as="points">
              <mxPoint x="465" y="748" />
              <mxPoint x="1359" y="748" />
              <mxPoint x="1359" y="1356" />
            </Array>
          </mxGeometry>
        </mxCell>
        <mxCell id="s12ok9e1yesrwG63ic8c-235" value="*" style="edgeLabel;html=1;align=center;verticalAlign=middle;resizable=0;points=[];" parent="s12ok9e1yesrwG63ic8c-232" vertex="1" connectable="0">
          <mxGeometry x="0.9911" relative="1" as="geometry">
            <mxPoint x="-2" y="2" as="offset" />
          </mxGeometry>
        </mxCell>
        <mxCell id="s12ok9e1yesrwG63ic8c-236" value="*" style="edgeLabel;html=1;align=center;verticalAlign=middle;resizable=0;points=[];rotation=-90;" parent="s12ok9e1yesrwG63ic8c-232" vertex="1" connectable="0">
          <mxGeometry x="-0.9926" y="1" relative="1" as="geometry">
            <mxPoint x="8" y="1" as="offset" />
          </mxGeometry>
        </mxCell>
        <mxCell id="s12ok9e1yesrwG63ic8c-286" style="edgeStyle=orthogonalEdgeStyle;rounded=0;orthogonalLoop=1;jettySize=auto;html=1;endArrow=none;endFill=0;startSize=5;endSize=5;" parent="1" source="s12ok9e1yesrwG63ic8c-277" target="s12ok9e1yesrwG63ic8c-175" edge="1">
          <mxGeometry relative="1" as="geometry">
            <Array as="points">
              <mxPoint x="726" y="1851" />
              <mxPoint x="726" y="1851" />
            </Array>
          </mxGeometry>
        </mxCell>
        <mxCell id="s12ok9e1yesrwG63ic8c-287" value="*" style="edgeLabel;html=1;align=center;verticalAlign=middle;resizable=0;points=[];" parent="s12ok9e1yesrwG63ic8c-286" vertex="1" connectable="0">
          <mxGeometry x="-0.8201" y="3" relative="1" as="geometry">
            <mxPoint as="offset" />
          </mxGeometry>
        </mxCell>
        <mxCell id="s12ok9e1yesrwG63ic8c-288" value="*" style="edgeLabel;html=1;align=center;verticalAlign=middle;resizable=0;points=[];" parent="s12ok9e1yesrwG63ic8c-286" vertex="1" connectable="0">
          <mxGeometry x="0.8051" y="1" relative="1" as="geometry">
            <mxPoint y="1" as="offset" />
          </mxGeometry>
        </mxCell>
        <mxCell id="s12ok9e1yesrwG63ic8c-292" style="edgeStyle=orthogonalEdgeStyle;rounded=0;orthogonalLoop=1;jettySize=auto;html=1;endArrow=none;endFill=0;startSize=5;endSize=5;" parent="1" source="s12ok9e1yesrwG63ic8c-277" target="s12ok9e1yesrwG63ic8c-86" edge="1">
          <mxGeometry relative="1" as="geometry">
            <Array as="points">
              <mxPoint x="695" y="1680" />
              <mxPoint x="600" y="1680" />
              <mxPoint x="600" y="1490" />
            </Array>
          </mxGeometry>
        </mxCell>
        <mxCell id="s12ok9e1yesrwG63ic8c-293" value="*" style="edgeLabel;html=1;align=center;verticalAlign=middle;resizable=0;points=[];" parent="s12ok9e1yesrwG63ic8c-292" vertex="1" connectable="0">
          <mxGeometry x="-0.9489" relative="1" as="geometry">
            <mxPoint as="offset" />
          </mxGeometry>
        </mxCell>
        <mxCell id="s12ok9e1yesrwG63ic8c-294" value="1" style="edgeLabel;html=1;align=center;verticalAlign=middle;resizable=0;points=[];" parent="s12ok9e1yesrwG63ic8c-292" vertex="1" connectable="0">
          <mxGeometry x="0.9638" y="-1" relative="1" as="geometry">
            <mxPoint x="-2" as="offset" />
          </mxGeometry>
        </mxCell>
        <mxCell id="s12ok9e1yesrwG63ic8c-295" style="edgeStyle=orthogonalEdgeStyle;rounded=0;orthogonalLoop=1;jettySize=auto;html=1;endArrow=none;endFill=0;startSize=5;endSize=5;" parent="1" source="s12ok9e1yesrwG63ic8c-277" target="s12ok9e1yesrwG63ic8c-50" edge="1">
          <mxGeometry relative="1" as="geometry">
            <Array as="points">
              <mxPoint x="1450" y="1817" />
              <mxPoint x="1450" y="736" />
              <mxPoint x="430" y="736" />
            </Array>
          </mxGeometry>
        </mxCell>
        <mxCell id="s12ok9e1yesrwG63ic8c-296" value="1" style="edgeLabel;html=1;align=center;verticalAlign=middle;resizable=0;points=[];" parent="s12ok9e1yesrwG63ic8c-295" vertex="1" connectable="0">
          <mxGeometry x="0.9969" relative="1" as="geometry">
            <mxPoint x="-1" y="-4" as="offset" />
          </mxGeometry>
        </mxCell>
        <mxCell id="s12ok9e1yesrwG63ic8c-297" value="*" style="edgeLabel;html=1;align=center;verticalAlign=middle;resizable=0;points=[];" parent="s12ok9e1yesrwG63ic8c-295" vertex="1" connectable="0">
          <mxGeometry x="-0.9903" y="-1" relative="1" as="geometry">
            <mxPoint as="offset" />
          </mxGeometry>
        </mxCell>
        <mxCell id="s12ok9e1yesrwG63ic8c-277" value="DeliveryNote" style="swimlane;fontStyle=1;align=center;verticalAlign=middle;childLayout=stackLayout;horizontal=1;startSize=29;horizontalStack=0;resizeParent=1;resizeParentMax=0;resizeLast=0;collapsible=0;marginBottom=0;html=1;fontSize=12;labelPosition=center;verticalLabelPosition=middle;container=0;swimlaneLine=1;rounded=0;sketch=0;glass=0;" parent="1" vertex="1">
          <mxGeometry x="580" y="1737" width="190" height="211" as="geometry" />
        </mxCell>
        <mxCell id="s12ok9e1yesrwG63ic8c-278" value="- id: UUID" style="text;strokeColor=none;fillColor=none;align=left;verticalAlign=top;spacingLeft=4;spacingRight=4;overflow=hidden;rotatable=0;points=[[0,0.5],[1,0.5]];portConstraint=eastwest;container=0;fontStyle=0" parent="s12ok9e1yesrwG63ic8c-277" vertex="1">
          <mxGeometry y="29" width="190" height="26" as="geometry" />
        </mxCell>
        <mxCell id="s12ok9e1yesrwG63ic8c-279" value="- date: LocalDate" style="text;strokeColor=none;fillColor=none;align=left;verticalAlign=top;spacingLeft=4;spacingRight=4;overflow=hidden;rotatable=0;points=[[0,0.5],[1,0.5]];portConstraint=eastwest;container=0;fontStyle=0" parent="s12ok9e1yesrwG63ic8c-277" vertex="1">
          <mxGeometry y="55" width="190" height="26" as="geometry" />
        </mxCell>
        <mxCell id="s12ok9e1yesrwG63ic8c-280" value="- emitter: UUID" style="text;strokeColor=none;fillColor=none;align=left;verticalAlign=top;spacingLeft=4;spacingRight=4;overflow=hidden;rotatable=0;points=[[0,0.5],[1,0.5]];portConstraint=eastwest;container=0;fontStyle=0" parent="s12ok9e1yesrwG63ic8c-277" vertex="1">
          <mxGeometry y="81" width="190" height="26" as="geometry" />
        </mxCell>
        <mxCell id="s12ok9e1yesrwG63ic8c-281" value="- subject: String" style="text;strokeColor=none;fillColor=none;align=left;verticalAlign=top;spacingLeft=4;spacingRight=4;overflow=hidden;rotatable=0;points=[[0,0.5],[1,0.5]];portConstraint=eastwest;container=0;fontStyle=0" parent="s12ok9e1yesrwG63ic8c-277" vertex="1">
          <mxGeometry y="107" width="190" height="26" as="geometry" />
        </mxCell>
        <mxCell id="s12ok9e1yesrwG63ic8c-282" value="- deliveryNote: String" style="text;strokeColor=none;fillColor=none;align=left;verticalAlign=top;spacingLeft=4;spacingRight=4;overflow=hidden;rotatable=0;points=[[0,0.5],[1,0.5]];portConstraint=eastwest;container=0;fontStyle=0" parent="s12ok9e1yesrwG63ic8c-277" vertex="1">
          <mxGeometry y="133" width="190" height="26" as="geometry" />
        </mxCell>
        <mxCell id="s12ok9e1yesrwG63ic8c-283" value="- progress: Float" style="text;strokeColor=none;fillColor=none;align=left;verticalAlign=top;spacingLeft=4;spacingRight=4;overflow=hidden;rotatable=0;points=[[0,0.5],[1,0.5]];portConstraint=eastwest;container=0;fontStyle=0" parent="s12ok9e1yesrwG63ic8c-277" vertex="1">
          <mxGeometry y="159" width="190" height="26" as="geometry" />
        </mxCell>
        <mxCell id="s12ok9e1yesrwG63ic8c-284" value="- plannedDeliveryDate: LocalDate" style="text;strokeColor=none;fillColor=none;align=left;verticalAlign=top;spacingLeft=4;spacingRight=4;overflow=hidden;rotatable=0;points=[[0,0.5],[1,0.5]];portConstraint=eastwest;container=0;fontStyle=0" parent="s12ok9e1yesrwG63ic8c-277" vertex="1">
          <mxGeometry y="185" width="190" height="26" as="geometry" />
        </mxCell>
        <mxCell id="s12ok9e1yesrwG63ic8c-289" style="edgeStyle=orthogonalEdgeStyle;rounded=0;orthogonalLoop=1;jettySize=auto;html=1;endArrow=none;endFill=0;startSize=5;endSize=5;" parent="1" source="s12ok9e1yesrwG63ic8c-277" target="s12ok9e1yesrwG63ic8c-228" edge="1">
          <mxGeometry relative="1" as="geometry">
            <Array as="points">
              <mxPoint x="1266" y="1750" />
            </Array>
          </mxGeometry>
        </mxCell>
        <mxCell id="s12ok9e1yesrwG63ic8c-290" value="*" style="edgeLabel;html=1;align=center;verticalAlign=middle;resizable=0;points=[];" parent="s12ok9e1yesrwG63ic8c-289" vertex="1" connectable="0">
          <mxGeometry x="-0.9636" y="-1" relative="1" as="geometry">
            <mxPoint as="offset" />
          </mxGeometry>
        </mxCell>
        <mxCell id="s12ok9e1yesrwG63ic8c-291" value="*" style="edgeLabel;html=1;align=center;verticalAlign=middle;resizable=0;points=[];" parent="s12ok9e1yesrwG63ic8c-289" vertex="1" connectable="0">
          <mxGeometry x="0.9769" relative="1" as="geometry">
            <mxPoint as="offset" />
          </mxGeometry>
        </mxCell>
        <mxCell id="s12ok9e1yesrwG63ic8c-298" value="RetrospectiveCategory" style="swimlane;fontStyle=1;align=center;verticalAlign=middle;childLayout=stackLayout;horizontal=1;startSize=29;horizontalStack=0;resizeParent=1;resizeParentMax=0;resizeLast=0;collapsible=0;marginBottom=0;html=1;fontSize=12;labelPosition=center;verticalLabelPosition=middle;container=0;swimlaneLine=1;rounded=0;sketch=0;glass=0;" parent="1" vertex="1">
          <mxGeometry x="555" y="1313" width="166" height="107" as="geometry" />
        </mxCell>
        <mxCell id="s12ok9e1yesrwG63ic8c-299" value="- id: UUID" style="text;strokeColor=none;fillColor=none;align=left;verticalAlign=top;spacingLeft=4;spacingRight=4;overflow=hidden;rotatable=0;points=[[0,0.5],[1,0.5]];portConstraint=eastwest;container=0;fontStyle=0" parent="s12ok9e1yesrwG63ic8c-298" vertex="1">
          <mxGeometry y="29" width="166" height="26" as="geometry" />
        </mxCell>
        <mxCell id="s12ok9e1yesrwG63ic8c-302" value="- name: String" style="text;strokeColor=none;fillColor=none;align=left;verticalAlign=top;spacingLeft=4;spacingRight=4;overflow=hidden;rotatable=0;points=[[0,0.5],[1,0.5]];portConstraint=eastwest;container=0;fontStyle=0" parent="s12ok9e1yesrwG63ic8c-298" vertex="1">
          <mxGeometry y="55" width="166" height="26" as="geometry" />
        </mxCell>
        <mxCell id="s12ok9e1yesrwG63ic8c-303" value="- description: String" style="text;strokeColor=none;fillColor=none;align=left;verticalAlign=top;spacingLeft=4;spacingRight=4;overflow=hidden;rotatable=0;points=[[0,0.5],[1,0.5]];portConstraint=eastwest;container=0;fontStyle=0" parent="s12ok9e1yesrwG63ic8c-298" vertex="1">
          <mxGeometry y="81" width="166" height="26" as="geometry" />
        </mxCell>
        <mxCell id="s12ok9e1yesrwG63ic8c-309" value="&lt;b&gt;&amp;lt;&amp;lt;enum&amp;gt;&amp;gt;&lt;/b&gt;&lt;br&gt;&lt;div style=&quot;text-align: left&quot;&gt;SubDealPriority&lt;br&gt;&lt;/div&gt;" style="swimlane;fontStyle=0;align=center;verticalAlign=middle;childLayout=stackLayout;horizontal=1;startSize=29;horizontalStack=0;resizeParent=1;resizeParentMax=0;resizeLast=0;collapsible=0;marginBottom=0;html=1;fontSize=12;labelPosition=center;verticalLabelPosition=middle;container=0;swimlaneLine=1;rounded=0;sketch=0;glass=0;" parent="1" vertex="1">
          <mxGeometry x="-34" y="753" width="150" height="107" as="geometry" />
        </mxCell>
        <mxCell id="s12ok9e1yesrwG63ic8c-310" value="CRITICAL" style="text;strokeColor=none;fillColor=none;align=left;verticalAlign=top;spacingLeft=4;spacingRight=4;overflow=hidden;rotatable=0;points=[[0,0.5],[1,0.5]];portConstraint=eastwest;container=0;fontStyle=0" parent="s12ok9e1yesrwG63ic8c-309" vertex="1">
          <mxGeometry y="29" width="150" height="26" as="geometry" />
        </mxCell>
        <mxCell id="s12ok9e1yesrwG63ic8c-311" value="MAJOR" style="text;strokeColor=none;fillColor=none;align=left;verticalAlign=top;spacingLeft=4;spacingRight=4;overflow=hidden;rotatable=0;points=[[0,0.5],[1,0.5]];portConstraint=eastwest;container=0;fontStyle=0" parent="s12ok9e1yesrwG63ic8c-309" vertex="1">
          <mxGeometry y="55" width="150" height="26" as="geometry" />
        </mxCell>
        <mxCell id="s12ok9e1yesrwG63ic8c-312" value="MINOR" style="text;strokeColor=none;fillColor=none;align=left;verticalAlign=top;spacingLeft=4;spacingRight=4;overflow=hidden;rotatable=0;points=[[0,0.5],[1,0.5]];portConstraint=eastwest;container=0;fontStyle=0" parent="s12ok9e1yesrwG63ic8c-309" vertex="1">
          <mxGeometry y="81" width="150" height="26" as="geometry" />
        </mxCell>
        <mxCell id="s12ok9e1yesrwG63ic8c-314" style="edgeStyle=orthogonalEdgeStyle;rounded=0;orthogonalLoop=1;jettySize=auto;html=1;endArrow=classic;endFill=1;startSize=5;endSize=5;dashed=1;" parent="1" source="s12ok9e1yesrwG63ic8c-50" target="s12ok9e1yesrwG63ic8c-309" edge="1">
          <mxGeometry relative="1" as="geometry">
            <Array as="points">
              <mxPoint x="267" y="868" />
              <mxPoint x="267" y="868" />
            </Array>
          </mxGeometry>
        </mxCell>
        <mxCell id="s12ok9e1yesrwG63ic8c-315" value="BlockReason" style="swimlane;fontStyle=1;align=center;verticalAlign=middle;childLayout=stackLayout;horizontal=1;startSize=29;horizontalStack=0;resizeParent=1;resizeParentMax=0;resizeLast=0;collapsible=0;marginBottom=0;html=1;fontSize=12;labelPosition=center;verticalLabelPosition=middle;container=0;swimlaneLine=1;rounded=0;sketch=0;glass=0;" parent="1" vertex="1">
          <mxGeometry x="-197" y="942" width="155" height="237" as="geometry" />
        </mxCell>
        <mxCell id="s12ok9e1yesrwG63ic8c-316" value="- id: UUID" style="text;strokeColor=none;fillColor=none;align=left;verticalAlign=top;spacingLeft=4;spacingRight=4;overflow=hidden;rotatable=0;points=[[0,0.5],[1,0.5]];portConstraint=eastwest;container=0;fontStyle=0" parent="s12ok9e1yesrwG63ic8c-315" vertex="1">
          <mxGeometry y="29" width="155" height="26" as="geometry" />
        </mxCell>
        <mxCell id="s12ok9e1yesrwG63ic8c-318" value="- reporter: UUID" style="text;strokeColor=none;fillColor=none;align=left;verticalAlign=top;spacingLeft=4;spacingRight=4;overflow=hidden;rotatable=0;points=[[0,0.5],[1,0.5]];portConstraint=eastwest;container=0;fontStyle=0" parent="s12ok9e1yesrwG63ic8c-315" vertex="1">
          <mxGeometry y="55" width="155" height="26" as="geometry" />
        </mxCell>
        <mxCell id="s12ok9e1yesrwG63ic8c-319" value="- reason: String" style="text;strokeColor=none;fillColor=none;align=left;verticalAlign=top;spacingLeft=4;spacingRight=4;overflow=hidden;rotatable=0;points=[[0,0.5],[1,0.5]];portConstraint=eastwest;container=0;fontStyle=0" parent="s12ok9e1yesrwG63ic8c-315" vertex="1">
          <mxGeometry y="81" width="155" height="26" as="geometry" />
        </mxCell>
        <mxCell id="s12ok9e1yesrwG63ic8c-320" value="- impact: Int" style="text;strokeColor=none;fillColor=none;align=left;verticalAlign=top;spacingLeft=4;spacingRight=4;overflow=hidden;rotatable=0;points=[[0,0.5],[1,0.5]];portConstraint=eastwest;container=0;fontStyle=0" parent="s12ok9e1yesrwG63ic8c-315" vertex="1">
          <mxGeometry y="107" width="155" height="26" as="geometry" />
        </mxCell>
        <mxCell id="s12ok9e1yesrwG63ic8c-321" value="- resolutionAction: String" style="text;strokeColor=none;fillColor=none;align=left;verticalAlign=top;spacingLeft=4;spacingRight=4;overflow=hidden;rotatable=0;points=[[0,0.5],[1,0.5]];portConstraint=eastwest;container=0;fontStyle=0" parent="s12ok9e1yesrwG63ic8c-315" vertex="1">
          <mxGeometry y="133" width="155" height="26" as="geometry" />
        </mxCell>
        <mxCell id="s12ok9e1yesrwG63ic8c-322" value="- assignee: UUID" style="text;strokeColor=none;fillColor=none;align=left;verticalAlign=top;spacingLeft=4;spacingRight=4;overflow=hidden;rotatable=0;points=[[0,0.5],[1,0.5]];portConstraint=eastwest;container=0;fontStyle=0" parent="s12ok9e1yesrwG63ic8c-315" vertex="1">
          <mxGeometry y="159" width="155" height="26" as="geometry" />
        </mxCell>
        <mxCell id="s12ok9e1yesrwG63ic8c-323" value="- date: LocalDate" style="text;strokeColor=none;fillColor=none;align=left;verticalAlign=top;spacingLeft=4;spacingRight=4;overflow=hidden;rotatable=0;points=[[0,0.5],[1,0.5]];portConstraint=eastwest;container=0;fontStyle=0" parent="s12ok9e1yesrwG63ic8c-315" vertex="1">
          <mxGeometry y="185" width="155" height="26" as="geometry" />
        </mxCell>
        <mxCell id="s12ok9e1yesrwG63ic8c-324" value="- resolutionDate: LocalDate" style="text;strokeColor=none;fillColor=none;align=left;verticalAlign=top;spacingLeft=4;spacingRight=4;overflow=hidden;rotatable=0;points=[[0,0.5],[1,0.5]];portConstraint=eastwest;container=0;fontStyle=0" parent="s12ok9e1yesrwG63ic8c-315" vertex="1">
          <mxGeometry y="211" width="155" height="26" as="geometry" />
        </mxCell>
        <mxCell id="s12ok9e1yesrwG63ic8c-328" style="edgeStyle=orthogonalEdgeStyle;rounded=0;orthogonalLoop=1;jettySize=auto;html=1;startArrow=none;startFill=0;endArrow=none;endFill=0;startSize=5;endSize=5;" parent="1" source="s12ok9e1yesrwG63ic8c-86" target="s12ok9e1yesrwG63ic8c-315" edge="1">
          <mxGeometry relative="1" as="geometry">
            <Array as="points">
              <mxPoint x="-79" y="1401" />
            </Array>
          </mxGeometry>
        </mxCell>
        <mxCell id="s12ok9e1yesrwG63ic8c-329" value="*" style="edgeLabel;html=1;align=center;verticalAlign=middle;resizable=0;points=[];" parent="s12ok9e1yesrwG63ic8c-328" vertex="1" connectable="0">
          <mxGeometry x="0.9533" relative="1" as="geometry">
            <mxPoint as="offset" />
          </mxGeometry>
        </mxCell>
        <mxCell id="s12ok9e1yesrwG63ic8c-330" value="1" style="edgeLabel;html=1;align=center;verticalAlign=middle;resizable=0;points=[];" parent="s12ok9e1yesrwG63ic8c-328" vertex="1" connectable="0">
          <mxGeometry x="-0.9572" y="-1" relative="1" as="geometry">
            <mxPoint as="offset" />
          </mxGeometry>
        </mxCell>
        <mxCell id="Gb0BCqCNzt-XSHrZR9sG-11" value="" style="endArrow=diamondThin;endFill=1;endSize=24;html=1;rounded=0;" edge="1" parent="1">
          <mxGeometry width="160" relative="1" as="geometry">
            <mxPoint x="385.5" y="1616" as="sourcePoint" />
            <mxPoint x="385.5" y="1670" as="targetPoint" />
          </mxGeometry>
        </mxCell>
        <mxCell id="Gb0BCqCNzt-XSHrZR9sG-12" value="1" style="edgeLabel;html=1;align=center;verticalAlign=middle;resizable=0;points=[];" vertex="1" connectable="0" parent="Gb0BCqCNzt-XSHrZR9sG-11">
          <mxGeometry x="-0.714" y="-1" relative="1" as="geometry">
            <mxPoint x="-4" as="offset" />
          </mxGeometry>
        </mxCell>
        <mxCell id="Gb0BCqCNzt-XSHrZR9sG-14" value="*" style="edgeLabel;html=1;align=center;verticalAlign=middle;resizable=0;points=[];rotation=89;" vertex="1" connectable="0" parent="Gb0BCqCNzt-XSHrZR9sG-11">
          <mxGeometry x="-0.1225" relative="1" as="geometry">
            <mxPoint x="-7" y="2" as="offset" />
          </mxGeometry>
        </mxCell>
      </root>
    </mxGraphModel>
  </diagram>
</mxfile>
